<svg width="12" height="16" viewBox="0 0 12 16" fill="none" xmlns="http://www.w3.org/2000/svg">
<path d="M6.00063 16C6.00063 16 12 10.2883 12 5.94571C11.9772 4.36094 11.335 2.84885 10.2122 1.73627C9.08951 0.623693 7.57641 0 6 0C4.42359 0 2.91049 0.623693 1.78775 1.73627C0.665014 2.84885 0.0228292 4.36094 0 5.94571C0 10.2883 6.00063 16 6.00063 16ZM6.00063 8.96225C5.40717 8.9625 4.82697 8.7858 4.3334 8.45449C3.83984 8.12318 3.45508 7.65215 3.2278 7.10097C3.00052 6.54979 2.94093 5.94322 3.05655 5.35799C3.17218 4.77275 3.45783 4.23514 3.87738 3.81314C4.29693 3.39115 4.83154 3.10372 5.41358 2.98723C5.99561 2.87073 6.59894 2.93039 7.14725 3.15867C7.69556 3.38695 8.16422 3.77358 8.49395 4.26968C8.82369 4.76577 8.99969 5.34904 8.99969 5.94571C8.99935 6.74531 8.68327 7.51206 8.12091 8.07746C7.55855 8.64286 6.79593 8.96192 6.00063 8.96225Z" fill="#F3704A"/>
</svg>
