<svg width="25" height="25" viewBox="0 0 25 25" fill="none" xmlns="http://www.w3.org/2000/svg">
<path d="M6.24889 8.7534C5.92015 8.75822 5.5939 8.69566 5.29028 8.56953C4.98667 8.4434 4.71212 8.25635 4.48359 8.02002C4.24722 7.79152 4.06019 7.51708 3.93404 7.21351C3.80789 6.90995 3.74529 6.58371 3.7501 6.25502C3.74529 5.92632 3.80789 5.60009 3.93404 5.29652C4.06019 4.99295 4.24722 4.71851 4.48359 4.49001C4.71198 4.25339 4.98646 4.06602 5.29008 3.9396C5.59371 3.81318 5.92003 3.75042 6.24889 3.75502C6.57776 3.75042 6.90408 3.81318 7.2077 3.9396C7.51133 4.06602 7.78581 4.25339 8.0142 4.49001C8.25057 4.71851 8.43759 4.99295 8.56375 5.29652C8.6899 5.60009 8.7525 5.92632 8.74769 6.25502C8.7525 6.58371 8.6899 6.90995 8.56375 7.21351C8.43759 7.51708 8.25057 7.79152 8.0142 8.02002C7.78567 8.25635 7.51112 8.4434 7.2075 8.56953C6.90389 8.69566 6.57764 8.75822 6.24889 8.7534ZM3.74845 24.9996C3.58343 25.0036 3.41932 24.9738 3.26625 24.912C3.11318 24.8502 2.97438 24.7578 2.85838 24.6403C2.74093 24.5244 2.64846 24.3856 2.58666 24.2326C2.52487 24.0795 2.49505 23.9155 2.49905 23.7505C2.17018 23.7551 1.84386 23.6922 1.54024 23.5658C1.23662 23.4394 0.962137 23.252 0.733743 23.0154C0.497377 22.7869 0.310351 22.5124 0.184198 22.2089C0.0580457 21.9053 -0.00455747 21.5791 0.000258156 21.2504V13.7519H3.7501V12.8141C3.74185 12.4431 3.80969 12.0743 3.94945 11.7305C4.0892 11.3867 4.29791 11.0752 4.5627 10.8151C4.82281 10.5504 5.13441 10.3417 5.47827 10.202C5.82214 10.0622 6.19098 9.99435 6.56207 10.0026C6.96052 9.99925 7.35469 10.0849 7.71586 10.2532C8.07643 10.4241 8.40441 10.6567 8.68505 10.9404L10.4355 12.8768C10.6026 13.0438 10.7641 13.1998 10.9201 13.3448C11.0809 13.4937 11.2534 13.6293 11.436 13.7503H19.9972V3.56542C19.999 3.42567 19.9721 3.2871 19.9182 3.15814C19.8644 3.02918 19.7847 2.91262 19.684 2.81564C19.587 2.71501 19.4705 2.63532 19.3415 2.58147C19.2125 2.52762 19.0738 2.50074 18.9341 2.50251C18.8101 2.5021 18.6875 2.52852 18.5747 2.57996C18.4516 2.63744 18.3399 2.71667 18.2451 2.81393L16.6825 4.37625C16.7858 4.71523 16.8073 5.07388 16.7451 5.42276C16.6846 5.76187 16.5574 6.08563 16.371 6.37532L12.9343 2.8766C13.2181 2.69213 13.5378 2.56967 13.8722 2.5173C14.2095 2.46532 14.5545 2.50289 14.8727 2.62613L16.4353 1.06381C16.7631 0.734244 17.1501 0.469255 17.5759 0.282652C18.0045 0.0946639 18.4677 -0.00137457 18.9357 0.000806671C19.4058 -0.00937637 19.8731 0.076945 20.3085 0.254387C20.744 0.431829 21.1384 0.696585 21.4675 1.03243C21.8032 1.36126 22.0679 1.7554 22.2454 2.19049C22.4228 2.62558 22.5093 3.09243 22.4993 3.5622V13.747H24.9997V21.2454C25.0046 21.5741 24.942 21.9004 24.8158 22.2039C24.6896 22.5075 24.5026 22.7819 24.2663 23.0104C24.0379 23.2471 23.7634 23.4344 23.4598 23.5608C23.1561 23.6873 22.8298 23.7501 22.5009 23.7455C22.5049 23.9105 22.4751 24.0746 22.4133 24.2276C22.3515 24.3807 22.2591 24.5194 22.1416 24.6354C22.0256 24.7528 21.8868 24.8453 21.7337 24.9071C21.5807 24.9689 21.4166 24.9987 21.2515 24.9947L3.74845 24.9996ZM2.49905 21.2504H22.4977V16.2519H2.5007L2.49905 21.2504Z" fill="#707070"/>
</svg>
