<svg width="29" height="21" viewBox="0 0 29 21" fill="none" xmlns="http://www.w3.org/2000/svg">
<path d="M0.000343878 21V11.9993C-0.00780502 11.3631 0.128979 10.7339 0.399615 10.1626C0.663554 9.61479 1.01915 9.11959 1.44995 8.70001V4.50022C1.43964 3.90747 1.54683 3.31881 1.7649 2.77058C1.98298 2.22235 2.30732 1.72614 2.71791 1.31261C3.11759 0.887799 3.59716 0.552181 4.12704 0.326551C4.65691 0.100921 5.22586 -0.0099679 5.79877 0.000703142H11.5972C12.1325 -0.00390829 12.663 0.104398 13.1565 0.318941C13.6469 0.536007 14.1 0.833878 14.4982 1.20097C14.8964 0.833878 15.3495 0.536007 15.8399 0.318941C16.3334 0.104398 16.864 -0.00390829 17.3992 0.000703142H23.2012C23.7741 -0.0099679 24.3431 0.100921 24.873 0.326551C25.4028 0.552181 25.8824 0.887799 26.2821 1.31261C26.6927 1.72614 27.017 2.22235 27.2351 2.77058C27.4532 3.31881 27.5604 3.90747 27.5501 4.50022V8.70001C27.9808 9.11959 28.3364 9.61479 28.6004 10.1626C28.871 10.7339 29.0078 11.3631 28.9997 11.9993V21H26.0969V18.0004H2.89596V21H0.000343878ZM15.9478 7.49986H24.64V4.50022C24.6446 4.30214 24.61 4.10513 24.5382 3.92144C24.4665 3.73774 24.3591 3.57119 24.2228 3.43204C24.0883 3.29099 23.9273 3.17999 23.7498 3.10574C23.5722 3.0315 23.3819 2.99559 23.1904 3.00034H17.3974C17.206 2.99559 17.0156 3.0315 16.8381 3.10574C16.6605 3.17999 16.4995 3.29099 16.3651 3.43204C16.2287 3.57119 16.1214 3.73774 16.0496 3.92144C15.9779 4.10513 15.9432 4.30214 15.9478 4.50022V7.49986ZM4.34916 7.49986H13.0486V4.50022C13.0532 4.30214 13.0185 4.10513 12.9468 3.92144C12.875 3.73774 12.7677 3.57119 12.6313 3.43204C12.4969 3.29099 12.3359 3.17999 12.1583 3.10574C11.9808 3.0315 11.7904 2.99559 11.599 3.00034H5.79877C5.60732 2.99559 5.41696 3.0315 5.23942 3.10574C5.06187 3.17999 4.90091 3.29099 4.76642 3.43204C4.63009 3.57119 4.52274 3.73774 4.45097 3.92144C4.37921 4.10513 4.34457 4.30214 4.34916 4.50022V7.49986ZM2.89955 15.0007H26.1004V12.0011C26.105 11.803 26.0704 11.6061 25.9986 11.4224C25.9269 11.2387 25.8195 11.0722 25.6832 10.933C25.5487 10.792 25.3877 10.6808 25.2102 10.6066C25.0326 10.5324 24.8423 10.4966 24.6508 10.5013H4.34916C4.15772 10.4966 3.96736 10.5324 3.78981 10.6066C3.61227 10.6808 3.4513 10.792 3.31682 10.933C3.18049 11.0722 3.07313 11.2387 3.00137 11.4224C2.92961 11.6061 2.89496 11.803 2.89955 12.0011V15.0007Z" fill="#707070"/>
</svg>
