<svg width="28" height="28" viewBox="0 0 28 28" fill="none" xmlns="http://www.w3.org/2000/svg">
<path d="M25.835 0.130681C26.093 0.290112 26.25 0.571746 26.25 0.875001V27.125C26.25 27.6082 25.8582 28 25.375 28H20.125C19.6418 28 19.25 27.6082 19.25 27.125V24.5H17.5V27.125C17.5 27.6082 17.1082 28 16.625 28H0.875C0.391751 28 0 27.6082 0 27.125V17.5C0 17.1234 0.241001 16.789 0.598301 16.6699L10.5 13.3693V7.875C10.5 7.54358 10.6873 7.24059 10.9837 7.09238L24.9837 0.0923771C25.2549 -0.0432428 25.5771 -0.0287493 25.835 0.130681ZM10.5 15.214L1.75 18.1307V26.25H10.5V15.214ZM12.25 26.25H15.75V23.625C15.75 23.1418 16.1418 22.75 16.625 22.75H20.125C20.6082 22.75 21 23.1418 21 23.625V26.25H24.5V2.29078L12.25 8.41578V26.25Z" fill="#707070"/>
<path d="M3.5 19.25H5.25V21H3.5V19.25Z" fill="#707070"/>
<path d="M7 19.25H8.75V21H7V19.25Z" fill="#707070"/>
<path d="M3.5 22.75H5.25V24.5H3.5V22.75Z" fill="#707070"/>
<path d="M7 22.75H8.75V24.5H7V22.75Z" fill="#707070"/>
<path d="M14 15.75H15.75V17.5H14V15.75Z" fill="#707070"/>
<path d="M17.5 15.75H19.25V17.5H17.5V15.75Z" fill="#707070"/>
<path d="M14 19.25H15.75V21H14V19.25Z" fill="#707070"/>
<path d="M17.5 19.25H19.25V21H17.5V19.25Z" fill="#707070"/>
<path d="M21 15.75H22.75V17.5H21V15.75Z" fill="#707070"/>
<path d="M21 19.25H22.75V21H21V19.25Z" fill="#707070"/>
<path d="M14 12.25H15.75V14H14V12.25Z" fill="#707070"/>
<path d="M17.5 12.25H19.25V14H17.5V12.25Z" fill="#707070"/>
<path d="M21 12.25H22.75V14H21V12.25Z" fill="#707070"/>
<path d="M14 8.75H15.75V10.5H14V8.75Z" fill="#707070"/>
<path d="M17.5 8.75H19.25V10.5H17.5V8.75Z" fill="#707070"/>
<path d="M21 8.75H22.75V10.5H21V8.75Z" fill="#707070"/>
<path d="M21 5.25H22.75V7H21V5.25Z" fill="#707070"/>
</svg>
