<svg width="26" height="26" viewBox="0 0 26 26" fill="none" xmlns="http://www.w3.org/2000/svg">
<path d="M0 6.5C0 6.5 0 3.25 3.25 3.25H22.75C22.75 3.25 26 3.25 26 6.5V16.25C26 16.25 26 19.5 22.75 19.5H16.25C16.25 20.5833 16.3854 21.3958 16.6562 21.9375H17.875C18.3237 21.9375 18.6875 22.3013 18.6875 22.75C18.6875 23.1987 18.3237 23.5625 17.875 23.5625H8.125C7.67627 23.5625 7.3125 23.1987 7.3125 22.75C7.3125 22.3013 7.67627 21.9375 8.125 21.9375H9.34375C9.61458 21.3958 9.75 20.5833 9.75 19.5H3.25C3.25 19.5 0 19.5 0 16.25V6.5ZM2.27248 5.10989C2.10102 5.2242 1.96643 5.38825 1.85969 5.60172C1.74977 5.82156 1.68672 6.06107 1.65367 6.25934C1.63779 6.35462 1.63048 6.43046 1.62722 6.47613C1.62587 6.49506 1.62525 6.50819 1.625 6.51466V16.25C1.625 16.7781 1.75237 17.0662 1.85989 17.2275C1.9742 17.399 2.13825 17.5336 2.35172 17.6403C2.57156 17.7502 2.81107 17.8133 3.00934 17.8463C3.10462 17.8622 3.18046 17.8695 3.22613 17.8728C3.24507 17.8741 3.2582 17.8747 3.26467 17.875H22.75C23.2781 17.875 23.5662 17.7476 23.7275 17.6401C23.899 17.5258 24.0336 17.3618 24.1403 17.1483C24.2502 16.9284 24.3133 16.6889 24.3463 16.4907C24.3622 16.3954 24.3695 16.3195 24.3728 16.2739C24.3741 16.2549 24.3747 16.2418 24.375 16.2353V6.5C24.375 5.97185 24.2476 5.68377 24.1401 5.52248C24.0258 5.35102 23.8618 5.21643 23.6483 5.10969C23.4284 4.99977 23.1889 4.93672 22.9907 4.90367C22.8954 4.88779 22.8195 4.88048 22.7739 4.87722C22.7549 4.87587 22.7418 4.87525 22.7353 4.875H3.25C2.72185 4.875 2.43377 5.00237 2.27248 5.10989Z" fill="#707070"/>
</svg>
