<svg width="23" height="23" viewBox="0 0 23 23" fill="none" xmlns="http://www.w3.org/2000/svg">
<path d="M15.525 16.2683V13.211L14.2312 10.9391C14.0971 11.0327 13.9917 11.1542 13.915 11.3037C13.8383 11.4534 13.8 11.6123 13.8 11.7806V18.2039L16.7613 23H14.0875L11.5 18.849V11.7806C11.5 11.2008 11.6437 10.668 11.9313 10.1818C12.2188 9.69573 12.6117 9.29369 13.11 8.97574L11.5 6.19895C11.1167 5.48829 10.949 4.73588 10.9969 3.94085C11.0448 3.14625 11.3562 2.46845 11.9313 1.90744L13.8862 0L21.8213 9.08808L23 23H20.7L19.5787 9.98556L13.7425 3.30996L13.57 3.47827C13.3783 3.66522 13.2681 3.88016 13.2394 4.12336C13.2106 4.36656 13.2538 4.60029 13.3688 4.8244L17.825 12.6219V16.2683H15.525ZM5.17499 16.2683V12.6219L9.63126 4.8244C9.74625 4.60029 9.78938 4.36656 9.76062 4.12336C9.73188 3.88016 9.62167 3.66522 9.43 3.47827L9.25752 3.30996L3.42125 9.98556L2.29999 23H0L1.17874 9.08808L9.11376 0L11.0688 1.90744C11.6437 2.46845 11.9552 3.14625 12.0031 3.94085C12.0511 4.73588 11.8833 5.48829 11.5 6.19895L9.89 8.97574C10.3884 9.29369 10.7812 9.69573 11.0688 10.1818C11.3562 10.668 11.5 11.2008 11.5 11.7806V18.849L8.91249 23H6.23874L9.20002 18.2039V11.7806C9.20002 11.6123 9.16166 11.4534 9.085 11.3037C9.00832 11.1542 8.9029 11.0327 8.76876 10.9391L7.47502 13.211V16.2683H5.17499Z" fill="#707070"/>
</svg>
