<svg width="24" height="24" viewBox="0 0 24 24" fill="none" xmlns="http://www.w3.org/2000/svg">
<path d="M1.5 12C1.5 17.799 6.20101 22.5 12 22.5C17.799 22.5 22.5 17.799 22.5 12C22.5 6.20101 17.799 1.5 12 1.5C6.20101 1.5 1.5 6.20101 1.5 12ZM24 12C24 18.6274 18.6274 24 12 24C5.37258 24 0 18.6274 0 12C0 5.37258 5.37258 0 12 0C18.6274 0 24 5.37258 24 12ZM8.25 6.00293H12.693C15.0671 6.00293 16.5 7.65527 16.5 9.87891C16.5 12.1201 15.0501 13.7461 12.676 13.7461H10.1747V18H8.25V6.00293ZM12.4047 12.1113C13.7443 12.1113 14.5329 11.2939 14.5329 9.87891C14.5329 8.46387 13.7443 7.65527 12.4047 7.65527H10.1662V12.1113H12.4047Z" fill="#707070"/>
</svg>
