<svg width="36" height="36" viewBox="0 0 36 36" fill="none" xmlns="http://www.w3.org/2000/svg">
<path d="M11.412 9.81491C11.412 12.0976 12.6663 13.883 14.2483 13.883C15.8416 13.883 17.0734 12.0976 17.0734 9.81491C17.0734 7.52096 15.8416 5.74683 14.2483 5.74683C12.655 5.74683 11.412 7.52096 11.412 9.81491ZM18.904 9.81491C18.904 12.0976 20.147 13.883 21.7404 13.883C23.3224 13.883 24.5654 12.0976 24.5654 9.81491C24.5654 7.52096 23.3224 5.74683 21.7404 5.74683C20.147 5.74683 18.904 7.52096 18.904 9.81491ZM5.84094 16.4594C5.84094 18.7534 7.07267 20.5388 8.6547 20.5388C10.248 20.5388 11.4911 18.7534 11.4911 16.4594C11.4911 14.1768 10.248 12.3914 8.6547 12.3914C7.07267 12.3914 5.84094 14.1768 5.84094 16.4594ZM24.4976 16.4594C24.4976 18.7534 25.7293 20.5388 27.3227 20.5388C28.916 20.5388 30.1477 18.7534 30.1477 16.4594C30.1477 14.1768 28.916 12.3914 27.3227 12.3914C25.7293 12.3914 24.4976 14.1768 24.4976 16.4594ZM9.34401 25.3188C9.34401 27.6806 10.9373 29.3643 13.2652 29.3643C14.4065 29.3643 15.2427 29.0479 16.0224 28.7654C16.6553 28.5507 17.2542 28.3473 17.9887 28.3473C18.7232 28.3473 19.3221 28.5507 19.9549 28.7654C20.7459 29.0479 21.5709 29.3643 22.7122 29.3643C25.04 29.3643 26.6334 27.6806 26.6334 25.3188C26.6334 23.33 25.4355 22.313 24.3168 21.3976C23.6953 20.8891 23.0964 20.4145 22.6896 19.793C22.3619 19.2958 22.0794 18.7421 21.8308 18.1997C21.0058 16.4481 20.3504 14.7644 17.9887 14.7644C15.6269 14.7644 14.9715 16.4481 14.1579 18.1997C13.898 18.7421 13.6268 19.2845 13.2991 19.7817C12.8923 20.4032 12.2821 20.8891 11.6606 21.3976C10.5418 22.313 9.34401 23.33 9.34401 25.3188Z" fill="#707070"/>
</svg>
