<svg width="24" height="21" viewBox="0 0 24 21" fill="none" xmlns="http://www.w3.org/2000/svg">
<path d="M8.28778 3.07819C10.338 1.0006 13.6621 1.0006 15.7124 3.07819C16.0053 3.37499 16.4802 3.37499 16.7731 3.07819C17.066 2.78139 17.066 2.30019 16.7731 2.00339C14.137 -0.667796 9.86316 -0.667796 7.22712 2.00339C6.93422 2.30019 6.93422 2.78139 7.22712 3.07819C7.52001 3.37499 7.99488 3.37499 8.28778 3.07819Z" fill="#707070"/>
<path d="M10.4091 5.22779C11.2878 4.3374 12.7124 4.3374 13.5911 5.22779C13.884 5.52459 14.3588 5.52459 14.6517 5.22779C14.9446 4.931 14.9446 4.44979 14.6517 4.15299C13.1873 2.669 10.8129 2.669 9.34844 4.15299C9.05554 4.44979 9.05554 4.931 9.34844 5.22779C9.64133 5.52459 10.1162 5.52459 10.4091 5.22779Z" fill="#707070"/>
<path d="M3.75 15.2C3.33579 15.2 3 14.8597 3 14.44C3 14.0203 3.33579 13.68 3.75 13.68C4.16421 13.68 4.5 14.0203 4.5 14.44C4.5 14.8597 4.16421 15.2 3.75 15.2Z" fill="#707070"/>
<path d="M10.5 14.44C10.5 14.8597 10.8358 15.2 11.25 15.2C11.6642 15.2 12 14.8597 12 14.44C12 14.0203 11.6642 13.68 11.25 13.68C10.8358 13.68 10.5 14.0203 10.5 14.44Z" fill="#707070"/>
<path d="M14.25 15.2C13.8358 15.2 13.5 14.8597 13.5 14.44C13.5 14.0203 13.8358 13.68 14.25 13.68C14.6642 13.68 15 14.0203 15 14.44C15 14.8597 14.6642 15.2 14.25 15.2Z" fill="#707070"/>
<path d="M16.5 14.44C16.5 14.8597 16.8358 15.2 17.25 15.2C17.6642 15.2 18 14.8597 18 14.44C18 14.0203 17.6642 13.68 17.25 13.68C16.8358 13.68 16.5 14.0203 16.5 14.44Z" fill="#707070"/>
<path d="M19.5 14.44C19.5 14.8597 19.8358 15.2 20.25 15.2C20.6642 15.2 21 14.8597 21 14.44C21 14.0203 20.6642 13.68 20.25 13.68C19.8358 13.68 19.5 14.0203 19.5 14.44Z" fill="#707070"/>
<path d="M4.46151 2.03968C4.33053 1.64148 3.90579 1.42628 3.51283 1.55901C3.11987 1.69174 2.9075 2.12214 3.03849 2.52034L5.70943 10.64H2.25C1.00736 10.64 0 11.6608 0 12.92V15.96C0 17.2192 1.00736 18.24 2.25 18.24H3C3 18.6597 3.33579 19 3.75 19H6.75C7.16421 19 7.5 18.6597 7.5 18.24H16.5C16.5 18.6597 16.8358 19 17.25 19H20.25C20.6642 19 21 18.6597 21 18.24H21.75C22.9926 18.24 24 17.2192 24 15.96V12.92C24 11.6608 22.9926 10.64 21.75 10.64H18.2906L20.9615 2.52034C21.0925 2.12214 20.8801 1.69174 20.4872 1.55901C20.0942 1.42628 19.6695 1.64148 19.5385 2.03968L16.7094 10.64H7.29057L4.46151 2.03968ZM21.75 12.16C22.1642 12.16 22.5 12.5003 22.5 12.92V15.96C22.5 16.3797 22.1642 16.72 21.75 16.72H2.25C1.83579 16.72 1.5 16.3797 1.5 15.96V12.92C1.5 12.5003 1.83579 12.16 2.25 12.16H21.75Z" fill="#707070"/>
<path d="M12.7501 6.84001C12.7501 7.25974 12.4143 7.60001 12.0001 7.60001C11.5859 7.60001 11.2501 7.25974 11.2501 6.84001C11.2501 6.42027 11.5859 6.08001 12.0001 6.08001C12.4143 6.08001 12.7501 6.42027 12.7501 6.84001Z" fill="#707070"/>
</svg>
