<svg width="28" height="28" viewBox="0 0 28 28" fill="none" xmlns="http://www.w3.org/2000/svg">
<path d="M2.33337 22.1666V18.6666H19.8334V22.1666H2.33337ZM21 22.1666V18.6666H22.75V22.1666H21ZM23.9167 22.1666V18.6666H25.6667V22.1666H23.9167ZM21 17.4999V15.9833C21 15.2249 20.7764 14.6464 20.3292 14.2478C19.882 13.8492 19.3473 13.6499 18.725 13.6499H16.9167C15.8278 13.6499 14.9042 13.2708 14.1459 12.5124C13.3875 11.7541 13.0084 10.8305 13.0084 9.74159C13.0084 8.6527 13.3875 7.72909 14.1459 6.97075C14.9042 6.21242 15.8278 5.83325 16.9167 5.83325V7.58325C16.3334 7.58325 15.8278 7.78742 15.4 8.19575C14.9723 8.60409 14.7584 9.11936 14.7584 9.74159C14.7584 10.3638 14.9723 10.8791 15.4 11.2874C15.8278 11.6958 16.3334 11.8999 16.9167 11.8999H18.725C19.8139 11.8999 20.757 12.2499 21.5542 12.9499C22.3514 13.6499 22.75 14.5249 22.75 15.5749V17.4999H21ZM23.9167 17.4999V14.8749C23.9167 13.5916 23.4695 12.4833 22.575 11.5499C21.6806 10.6166 20.5723 10.1499 19.25 10.1499V8.39992C19.8334 8.39992 20.3389 8.18603 20.7667 7.75825C21.1945 7.33047 21.4084 6.82492 21.4084 6.24159C21.4084 5.65825 21.1945 5.1527 20.7667 4.72492C20.3389 4.29714 19.8334 4.08325 19.25 4.08325V2.33325C20.3389 2.33325 21.2625 2.71242 22.0209 3.47075C22.7792 4.22909 23.1584 5.1527 23.1584 6.24159C23.1584 6.80547 23.0514 7.31589 22.8375 7.77284C22.6237 8.22978 22.3417 8.6527 21.9917 9.04159C23.0806 9.54714 23.9653 10.3249 24.6459 11.3749C25.3264 12.4249 25.6667 13.5916 25.6667 14.8749V17.4999H23.9167Z" fill="#5F6368"/>
</svg>
