<svg width="30" height="30" viewBox="0 0 30 30" fill="none" xmlns="http://www.w3.org/2000/svg">
<path d="M19.1502 2.75817L20.4455 0.396788C20.5306 0.240455 20.5003 0.120574 20.3545 0.0362777C20.1963 -0.0364103 20.0747 0.000421903 19.9897 0.144171L18.6763 2.52443C17.5206 2.01947 16.2982 1.76652 15.0092 1.76652C13.7199 1.76652 12.4974 2.01952 11.3421 2.52443L10.0286 0.144171C9.94325 0.000421903 9.82167 -0.0360848 9.6638 0.0362777C9.51768 0.120954 9.48744 0.240455 9.57279 0.396788L10.8682 2.75817C9.55468 3.42012 8.50856 4.34201 7.7302 5.52585C6.95184 6.71034 6.5625 8.00472 6.5625 9.41129H23.4375C23.4375 8.00505 23.0481 6.71061 22.2698 5.52585C21.4914 4.34201 20.4513 3.42012 19.1502 2.75817ZM11.6612 6.19284C11.5212 6.3316 11.3538 6.40065 11.1594 6.40065C10.9645 6.40065 10.8006 6.3316 10.6669 6.19284C10.5332 6.05473 10.4663 5.89005 10.4663 5.69721C10.4663 5.50502 10.5332 5.34001 10.6669 5.20157C10.8006 5.06347 10.9649 4.99441 11.1594 4.99441C11.3538 4.99441 11.5212 5.06347 11.6612 5.20157C11.801 5.34033 11.8712 5.50502 11.8712 5.69721C11.8708 5.88972 11.8007 6.05473 11.6612 6.19284ZM19.3507 6.19284C19.2167 6.3316 19.0525 6.40065 18.8583 6.40065C18.6634 6.40065 18.4961 6.3316 18.3563 6.19284C18.2163 6.05473 18.1464 5.89005 18.1464 5.69721C18.1464 5.50502 18.2163 5.34001 18.3563 5.20157C18.4961 5.06347 18.6634 4.99441 18.8583 4.99441C19.0528 4.99441 19.2167 5.06347 19.3507 5.20157C19.4846 5.34033 19.5513 5.50502 19.5513 5.69721C19.5513 5.88972 19.4845 6.05473 19.3507 6.19284Z" fill="white"/>
<path d="M6.5625 22.067C6.5625 22.6204 6.75698 23.0888 7.14599 23.4733C7.53534 23.8577 8.00938 24.0499 8.56899 24.0499H9.99156L10.0101 28.1429C10.0101 28.6597 10.1925 29.0986 10.5573 29.4592C10.9221 29.8197 11.3602 30 11.8708 30C12.3935 30 12.8376 29.8197 13.2024 29.4592C13.5673 29.0986 13.7497 28.6598 13.7497 28.1429V24.0503H16.2672V28.1429C16.2672 28.6597 16.4496 29.0986 16.8144 29.4592C17.1793 29.8197 17.623 30 18.1461 30C18.6688 30 19.1129 29.8197 19.4778 29.4592C19.8426 29.0986 20.025 28.6598 20.025 28.1429V24.0503H21.4491C21.9963 24.0503 22.4642 23.858 22.854 23.4736C23.2429 23.0892 23.4375 22.6207 23.4375 22.0674V10.0597H6.5625V22.067Z" fill="white"/>
<path d="M26.2409 9.71741C25.7285 9.71741 25.2896 9.89193 24.9237 10.24C24.5579 10.5887 24.375 11.0171 24.375 11.5244V19.1424C24.375 19.651 24.5579 20.0816 24.9237 20.436C25.2896 20.7903 25.7288 20.9674 26.2409 20.9674C26.7651 20.9674 27.2104 20.7903 27.5763 20.436C27.9421 20.0816 28.125 19.651 28.125 19.1424V11.5244C28.125 11.017 27.9421 10.5887 27.5763 10.24C27.2104 9.89193 26.7651 9.71741 26.2409 9.71741Z" fill="white"/>
<path d="M2.42373 10.2488C2.78951 9.89454 3.23449 9.71741 3.75894 9.71741C4.27124 9.71741 4.71044 9.89454 5.07627 10.2488C5.44211 10.6031 5.625 11.0281 5.625 11.5244V19.1424C5.625 19.651 5.44481 20.0817 5.08541 20.436C4.7253 20.7903 4.28301 20.9674 3.75894 20.9674C3.23449 20.9674 2.78951 20.7902 2.42373 20.436C2.05789 20.0816 1.875 19.651 1.875 19.1424V11.5244C1.875 11.0282 2.05795 10.6031 2.42373 10.2488Z" fill="white"/>
</svg>
