<svg width="24" height="26" viewBox="0 0 24 26" fill="none" xmlns="http://www.w3.org/2000/svg">
<path d="M2 25.5C1.64583 25.5 1.34896 25.3802 1.10938 25.1406C0.869792 24.901 0.75 24.6042 0.75 24.25V18C0.75 17.3125 0.994792 16.724 1.48438 16.2344C1.97396 15.7448 2.5625 15.5 3.25 15.5V10.5C3.25 9.8125 3.49479 9.22396 3.98438 8.73438C4.47396 8.24479 5.0625 8 5.75 8H10.75V6.1875C10.375 5.9375 10.0729 5.63542 9.84375 5.28125C9.61458 4.92708 9.5 4.5 9.5 4C9.5 3.6875 9.5625 3.38021 9.6875 3.07812C9.8125 2.77604 10 2.5 10.25 2.25L12 0.5L13.75 2.25C14 2.5 14.1875 2.77604 14.3125 3.07812C14.4375 3.38021 14.5 3.6875 14.5 4C14.5 4.5 14.3854 4.92708 14.1562 5.28125C13.9271 5.63542 13.625 5.9375 13.25 6.1875V8H18.25C18.9375 8 19.526 8.24479 20.0156 8.73438C20.5052 9.22396 20.75 9.8125 20.75 10.5V15.5C21.4375 15.5 22.026 15.7448 22.5156 16.2344C23.0052 16.724 23.25 17.3125 23.25 18V24.25C23.25 24.6042 23.1302 24.901 22.8906 25.1406C22.651 25.3802 22.3542 25.5 22 25.5H2ZM5.75 15.5H18.25V10.5H5.75V15.5ZM3.25 23H20.75V18H3.25V23Z" fill="#035781"/>
</svg>
