<svg width="17" height="17" viewBox="0 0 17 17" fill="none" xmlns="http://www.w3.org/2000/svg">
<path d="M14.446 1.09957C14.7198 1.09957 14.9823 1.21542 15.1759 1.42163C15.3695 1.62784 15.4782 1.90752 15.4782 2.19915V10.9918C15.4782 11.1362 15.4515 11.2792 15.3997 11.4126C15.3478 11.546 15.2718 11.6673 15.1759 11.7694C15.0801 11.8715 14.9663 11.9525 14.841 12.0077C14.7158 12.063 14.5816 12.0914 14.446 12.0914H4.55486C4.00657 12.0929 3.48122 12.326 3.09419 12.7398L1.0249 14.9441V2.20433C1.02425 2.0584 1.05087 1.91379 1.10321 1.77893C1.15556 1.64407 1.23258 1.52166 1.32978 1.41883C1.42699 1.316 1.54244 1.23482 1.6694 1.18001C1.79637 1.12519 1.9323 1.09785 2.06928 1.09957H14.446ZM2.06928 0C1.52048 0 0.994145 0.232242 0.606079 0.645635C0.218013 1.05903 2.00583e-07 1.61971 2.00583e-07 2.20433V16.2615C-8.98314e-05 16.3703 0.0301303 16.4767 0.0868343 16.5672C0.143538 16.6577 0.224176 16.7282 0.318538 16.7699C0.4129 16.8116 0.516741 16.8224 0.616916 16.8012C0.71709 16.7799 0.809091 16.7275 0.881272 16.6505L3.82574 13.5139C3.92168 13.4118 4.03556 13.3309 4.16088 13.2757C4.28619 13.2205 4.42048 13.1922 4.55608 13.1923H14.4473C14.9961 13.1923 15.5224 12.9601 15.9105 12.5467C16.2985 12.1333 16.5165 11.5726 16.5165 10.988V2.20433C16.5165 1.61971 16.2985 1.05903 15.9105 0.645635C15.5224 0.232242 14.9961 0 14.4473 0L2.06928 0Z" fill="#035781"/>
<path d="M3.09534 3.84813C3.09534 3.70231 3.14971 3.56247 3.2465 3.45937C3.34329 3.35626 3.47456 3.29834 3.61144 3.29834H12.8989C13.0358 3.29834 13.167 3.35626 13.2638 3.45937C13.3606 3.56247 13.415 3.70231 13.415 3.84813C13.415 3.99394 13.3606 4.13378 13.2638 4.23688C13.167 4.33999 13.0358 4.39791 12.8989 4.39791H3.61144C3.47456 4.39791 3.34329 4.33999 3.2465 4.23688C3.14971 4.13378 3.09534 3.99394 3.09534 3.84813ZM3.09534 6.59577C3.09534 6.52357 3.10869 6.45207 3.13462 6.38537C3.16056 6.31867 3.19858 6.25806 3.2465 6.20701C3.29442 6.15595 3.35132 6.11546 3.41394 6.08783C3.47655 6.0602 3.54366 6.04598 3.61144 6.04598H12.8989C13.0358 6.04598 13.167 6.1039 13.2638 6.20701C13.3606 6.31011 13.415 6.44995 13.415 6.59577C13.415 6.74158 13.3606 6.88142 13.2638 6.98452C13.167 7.08763 13.0358 7.14555 12.8989 7.14555H3.61144C3.47456 7.14555 3.34329 7.08763 3.2465 6.98452C3.14971 6.88142 3.09534 6.74158 3.09534 6.59577ZM3.09534 9.3447C3.09534 9.19889 3.14971 9.05905 3.2465 8.95594C3.34329 8.85284 3.47456 8.79491 3.61144 8.79491H8.77126C8.90814 8.79491 9.03941 8.85284 9.1362 8.95594C9.23299 9.05905 9.28736 9.19889 9.28736 9.3447C9.28736 9.49051 9.23299 9.63035 9.1362 9.73346C9.03941 9.83656 8.90814 9.89449 8.77126 9.89449H3.61144C3.47456 9.89449 3.34329 9.83656 3.2465 9.73346C3.14971 9.63035 3.09534 9.49051 3.09534 9.3447Z" fill="#035781"/>
</svg>
