<svg width="16" height="15" viewBox="0 0 16 15" fill="none" xmlns="http://www.w3.org/2000/svg">
<path d="M3.39063 14.0264C3.3065 14.0655 3.21316 14.0804 3.12104 14.0694C3.02892 14.0585 2.94166 14.0221 2.86903 13.9644C2.79639 13.9067 2.74123 13.83 2.70973 13.7427C2.67822 13.6555 2.67161 13.5612 2.69063 13.4704L3.46963 9.03139L0.162632 5.88039C0.092766 5.81408 0.0426129 5.72972 0.0177243 5.63666C-0.00716433 5.54361 -0.00581772 5.44548 0.021615 5.35314C0.0490478 5.2608 0.101497 5.17785 0.173156 5.11347C0.244816 5.0491 0.332891 5.00581 0.427632 4.98839L5.02763 4.3354L7.07563 0.274397C7.11483 0.192254 7.17649 0.12289 7.25348 0.0743306C7.33046 0.0257708 7.41961 0 7.51063 0C7.60165 0 7.69081 0.0257708 7.76779 0.0743306C7.84477 0.12289 7.90643 0.192254 7.94563 0.274397L9.99963 4.3354L14.5996 4.98839C14.6944 5.00581 14.7824 5.0491 14.8541 5.11347C14.9258 5.17785 14.9782 5.2608 15.0056 5.35314C15.0331 5.44548 15.0344 5.54361 15.0095 5.63666C14.9847 5.72972 14.9345 5.81408 14.8646 5.88039L11.5516 9.03139L12.3306 13.4704C12.3497 13.5612 12.343 13.6555 12.3115 13.7427C12.28 13.83 12.2249 13.9067 12.1522 13.9644C12.0796 14.0221 11.9923 14.0585 11.9002 14.0694C11.8081 14.0804 11.7148 14.0655 11.6306 14.0264L7.51063 11.9094L3.39063 14.0264Z" fill="#FFD433"/>
</svg>
