<svg width="4" height="20" viewBox="0 0 4 20" fill="none" xmlns="http://www.w3.org/2000/svg">
<path fill-rule="evenodd" clip-rule="evenodd" d="M1.96347 3.99714C2.35181 3.99714 2.73142 3.87992 3.05432 3.66032C3.37721 3.44071 3.62887 3.12858 3.77748 2.76339C3.92609 2.3982 3.96497 1.99635 3.88921 1.60867C3.81345 1.22098 3.62645 0.864873 3.35185 0.585368C3.07726 0.305863 2.7274 0.115518 2.34652 0.0384028C1.96565 -0.0387124 1.57086 0.000865942 1.21208 0.152133C0.853305 0.3034 0.546653 0.559561 0.330904 0.888224C0.115156 1.21689 0 1.60329 0 1.99857C0 2.52862 0.206865 3.03697 0.575087 3.41177C0.943309 3.78657 1.44273 3.99714 1.96347 3.99714Z" fill="#292C2D"/>
<path fill-rule="evenodd" clip-rule="evenodd" d="M1.96347 11.9908C2.35181 11.9908 2.73142 11.8736 3.05432 11.654C3.37721 11.4344 3.62887 11.1222 3.77748 10.757C3.92609 10.3918 3.96497 9.99 3.88921 9.60232C3.81345 9.21464 3.62645 8.85853 3.35185 8.57902C3.07726 8.29952 2.7274 8.10917 2.34652 8.03206C1.96565 7.95494 1.57086 7.99452 1.21208 8.14579C0.853305 8.29705 0.546653 8.55321 0.330904 8.88188C0.115156 9.21054 0 9.59694 0 9.99222C0 10.5223 0.206865 11.0306 0.575087 11.4054C0.943309 11.7802 1.44273 11.9908 1.96347 11.9908Z" fill="#292C2D"/>
<path fill-rule="evenodd" clip-rule="evenodd" d="M1.96347 19.9849C2.35181 19.9849 2.73142 19.8677 3.05432 19.6481C3.37721 19.4285 3.62887 19.1164 3.77748 18.7512C3.92609 18.386 3.96497 17.9841 3.88921 17.5965C3.81345 17.2088 3.62645 16.8527 3.35185 16.5732C3.07726 16.2937 2.7274 16.1033 2.34652 16.0262C1.96565 15.9491 1.57086 15.9887 1.21208 16.1399C0.853305 16.2912 0.546653 16.5474 0.330904 16.876C0.115156 17.2047 0 17.5911 0 17.9864C0 18.5164 0.206865 19.0248 0.575087 19.3996C0.943309 19.7744 1.44273 19.9849 1.96347 19.9849Z" fill="#292C2D"/>
</svg>
