<svg width="24" height="29" viewBox="0 0 24 29" fill="none" xmlns="http://www.w3.org/2000/svg">
<path d="M17.4507 0.0144318C17.3894 -0.0540594 15.1815 0.0414679 13.2601 2.12685C11.3388 4.21043 11.6344 6.60041 11.6776 6.66169C11.7209 6.72297 14.4173 6.8185 16.1386 4.39427C17.8599 1.97004 17.512 0.0847254 17.4507 0.0144318ZM23.4239 21.162C23.3373 20.989 19.2333 18.9378 19.6154 14.9942C19.9975 11.0487 22.6344 9.96729 22.6759 9.85014C22.7173 9.73298 21.5998 8.42624 20.4157 7.76476C19.5462 7.29839 18.5839 7.03118 17.5985 6.98252C17.4038 6.97711 16.7279 6.81129 15.3383 7.1916C14.4227 7.44213 12.3589 8.25321 11.7912 8.28565C11.2216 8.3181 9.52735 7.3448 7.70513 7.08706C6.53898 6.86176 5.30253 7.32317 4.41755 7.67824C3.53437 8.03151 1.85454 9.03725 0.679371 11.7102C-0.495794 14.3814 0.118825 18.6134 0.55861 19.9291C0.998395 21.2431 1.68511 23.397 2.85307 24.9687C3.89125 26.7422 5.26828 27.9733 5.84325 28.3914C6.41821 28.8096 8.04037 29.0871 9.16507 28.5122C10.0699 27.957 11.7029 27.638 12.3481 27.6614C12.9916 27.6849 14.2605 27.939 15.56 28.6329C16.5892 28.988 17.5625 28.8402 18.5376 28.4437C19.5127 28.0454 20.9239 26.5349 22.5713 23.4727C23.1968 22.0488 23.4815 21.2791 23.4239 21.162Z" fill="#292C2D"/>
<path d="M17.4507 0.0144318C17.3894 -0.0540594 15.1815 0.0414679 13.2601 2.12685C11.3388 4.21043 11.6344 6.60041 11.6776 6.66169C11.7209 6.72297 14.4173 6.8185 16.1386 4.39427C17.8599 1.97004 17.512 0.0847254 17.4507 0.0144318ZM23.4239 21.162C23.3373 20.989 19.2333 18.9378 19.6154 14.9942C19.9975 11.0487 22.6344 9.96729 22.6759 9.85014C22.7173 9.73298 21.5998 8.42624 20.4157 7.76476C19.5462 7.29839 18.5839 7.03118 17.5985 6.98252C17.4038 6.97711 16.7279 6.81129 15.3383 7.1916C14.4227 7.44213 12.3589 8.25321 11.7912 8.28565C11.2216 8.3181 9.52735 7.3448 7.70513 7.08706C6.53898 6.86176 5.30253 7.32317 4.41755 7.67824C3.53437 8.03151 1.85454 9.03725 0.679371 11.7102C-0.495794 14.3814 0.118825 18.6134 0.55861 19.9291C0.998395 21.2431 1.68511 23.397 2.85307 24.9687C3.89125 26.7422 5.26828 27.9733 5.84325 28.3914C6.41821 28.8096 8.04037 29.0871 9.16507 28.5122C10.0699 27.957 11.7029 27.638 12.3481 27.6614C12.9916 27.6849 14.2605 27.939 15.56 28.6329C16.5892 28.988 17.5625 28.8402 18.5376 28.4437C19.5127 28.0454 20.9239 26.5349 22.5713 23.4727C23.1968 22.0488 23.4815 21.2791 23.4239 21.162Z" fill="#292C2D"/>
</svg>
