<svg width="26" height="27" viewBox="0 0 26 27" fill="none" xmlns="http://www.w3.org/2000/svg">
<path d="M25.5507 13.3258C25.5507 12.2539 25.4637 11.4718 25.2755 10.6606H13.0361V15.4984H20.2204C20.0756 16.7007 19.2934 18.5112 17.5552 19.7279L17.5308 19.8899L21.4007 22.8878L21.6688 22.9146C24.1312 20.6404 25.5507 17.2945 25.5507 13.3258Z" fill="#4285F4"/>
<path d="M13.0361 26.0721C16.5558 26.0721 19.5106 24.9133 21.6689 22.9145L17.5552 19.7278C16.4544 20.4955 14.977 21.0314 13.0361 21.0314C9.5888 21.0314 6.66295 18.7575 5.61997 15.6143L5.46709 15.6273L1.44313 18.7415L1.3905 18.8878C3.53419 23.1462 7.9375 26.0721 13.0361 26.0721Z" fill="#34A853"/>
<path d="M5.61994 15.6143C5.34474 14.8032 5.18547 13.9341 5.18547 13.0361C5.18547 12.138 5.34474 11.2689 5.60546 10.4578L5.59817 10.2851L1.52379 7.12085L1.39048 7.18426C0.506964 8.95139 0 10.9358 0 13.0361C0 15.1363 0.506964 17.1206 1.39048 18.8878L5.61994 15.6143Z" fill="#FBBC05"/>
<path d="M13.0361 5.04058C15.4839 5.04058 17.1352 6.09795 18.0767 6.98157L21.7557 3.38938C19.4962 1.28913 16.5558 0 13.0361 0C7.9375 0 3.53419 2.92585 1.3905 7.18427L5.60549 10.4578C6.66295 7.31468 9.5888 5.04058 13.0361 5.04058Z" fill="#EB4335"/>
</svg>
