<svg width="18" height="18" viewBox="0 0 18 18" fill="none" xmlns="http://www.w3.org/2000/svg">
<path fill-rule="evenodd" clip-rule="evenodd" d="M2.12037 0.57496C2.95525 -0.259918 4.33293 -0.174147 5.05781 0.757839L7.07573 3.35231C7.44604 3.82842 7.5769 4.44835 7.43061 5.03351L6.81493 7.4962C6.74993 7.7562 6.82611 8.03123 7.01561 8.22074L9.77927 10.9844C9.96877 11.1739 10.2438 11.2501 10.5038 11.1851L12.9665 10.5694C13.5517 10.4231 14.1716 10.554 14.6477 10.9243L17.2422 12.9422C18.1741 13.6671 18.2599 15.0448 17.425 15.8796L16.2619 17.0428C15.4297 17.875 14.185 18.2404 13.025 17.8326C10.1447 16.8199 7.44118 15.1621 5.13955 12.8605C2.83792 10.5588 1.18007 7.85526 0.167443 4.97503C-0.240393 3.81501 0.125021 2.57031 0.957206 1.73812L2.12037 0.57496Z" fill="#7D8082"/>
</svg>
