<svg width="19" height="17" viewBox="0 0 19 17" fill="none" xmlns="http://www.w3.org/2000/svg">
<path d="M3.89731 15.8442C3.87457 15.9511 3.88183 16.0623 3.91826 16.1652C3.95469 16.2682 4.01883 16.3587 4.10343 16.4266C4.18804 16.4946 4.28972 16.5371 4.39698 16.5496C4.50424 16.562 4.61279 16.5438 4.71035 16.497L9.5027 14.0064L14.295 16.497C14.3926 16.5438 14.5012 16.562 14.6084 16.5496C14.7157 16.5371 14.8174 16.4946 14.902 16.4266C14.9866 16.3587 15.0507 16.2682 15.0871 16.1652C15.1236 16.0623 15.1308 15.9511 15.1081 15.8442L14.1909 10.622L18.0314 6.9162C18.1125 6.83818 18.1708 6.73897 18.1997 6.62953C18.2286 6.52009 18.227 6.40468 18.1952 6.29607C18.1634 6.18746 18.1026 6.08988 18.0194 6.0141C17.9363 5.93833 17.834 5.88733 17.7241 5.86673L12.3831 5.09846L10.0018 0.321471C9.95604 0.225176 9.88439 0.143916 9.79508 0.0870444C9.70577 0.0301724 9.60241 0 9.49692 0C9.39142 0 9.28807 0.0301724 9.19875 0.0870444C9.10944 0.143916 9.0378 0.225176 8.99207 0.321471L6.61077 5.09846L1.26812 5.86673C1.15814 5.88733 1.05592 5.93833 0.972764 6.0141C0.889611 6.08988 0.828766 6.18746 0.796956 6.29607C0.765145 6.40468 0.763609 6.52009 0.792516 6.62953C0.821423 6.73897 0.879647 6.83818 0.960752 6.9162L4.80289 10.622L3.89731 15.8442ZM9.2449 12.7878L5.23421 14.8801L5.9828 10.5098C6.0007 10.4094 5.99394 10.306 5.9631 10.2088C5.93227 10.1116 5.87831 10.0236 5.80598 9.95245L2.63642 6.89444L7.05199 6.2584C7.1434 6.24439 7.2301 6.20813 7.30464 6.15275C7.37918 6.09736 7.43936 6.02449 7.48 5.94038L9.49609 1.90153L11.5138 5.94038C11.5545 6.02449 11.6146 6.09736 11.6892 6.15275C11.7637 6.20813 11.8504 6.24439 11.9418 6.2584L16.3591 6.89444L13.1862 9.95245C13.1139 10.0236 13.0599 10.1116 13.0291 10.2088C12.9982 10.306 12.9915 10.4094 13.0094 10.5098L13.7662 14.8801L9.74893 12.7878C9.67103 12.747 9.58461 12.7258 9.49692 12.7258C9.40922 12.7258 9.3228 12.747 9.2449 12.7878Z" fill="#FFD433"/>
</svg>
