<svg width="18" height="17" viewBox="0 0 18 17" fill="none" xmlns="http://www.w3.org/2000/svg">
<path d="M6.1683 5.09846L8.5496 0.321471C8.59533 0.225176 8.66697 0.143916 8.75629 0.0870444C8.8456 0.0301724 8.94895 0 9.05445 0C9.15995 0 9.2633 0.0301724 9.35261 0.0870444C9.44193 0.143916 9.51357 0.225176 9.5593 0.321471L11.9406 5.09846L17.2816 5.86673C17.415 5.88743 17.5373 5.95424 17.6277 6.05583C17.718 6.15742 17.7709 6.28753 17.7774 6.4241C17.7796 6.45531 17.7796 6.48663 17.7774 6.51784C17.7672 6.66943 17.7011 6.81161 17.5923 6.9162L13.7485 10.622L14.6524 15.8442C14.6751 15.9511 14.6679 16.0623 14.6315 16.1652C14.595 16.2682 14.5309 16.3587 14.4463 16.4266C14.3617 16.4946 14.26 16.5371 14.1527 16.5496C14.0455 16.562 13.9369 16.5438 13.8394 16.497L9.05362 14.008L4.26128 16.4986C4.20934 16.5256 4.15359 16.5442 4.09602 16.5539C4.0026 16.568 3.9072 16.559 3.81793 16.5278C3.72866 16.4966 3.64815 16.4439 3.58326 16.3744C3.51836 16.3049 3.47099 16.2206 3.44518 16.1285C3.41937 16.0365 3.41588 15.9395 3.43501 15.8459L4.33894 10.6236L0.519938 6.9162C0.459772 6.85918 0.411846 6.79023 0.37915 6.71363C0.346453 6.63703 0.329687 6.55442 0.329897 6.47097C0.3298 6.35289 0.361818 6.23707 0.422439 6.13621C0.46545 6.06359 0.52401 6.00168 0.593797 5.95504C0.663584 5.9084 0.742819 5.87822 0.825657 5.86673L6.1683 5.09846ZM9.05197 12.7192C9.13992 12.7192 9.22661 12.7404 9.30481 12.7812L13.3238 14.8734L12.5669 10.5098C12.549 10.4094 12.5558 10.306 12.5866 10.2088C12.6174 10.1116 12.6714 10.0236 12.7437 9.95245L15.9133 6.89444L11.4961 6.2584C11.4052 6.24388 11.3192 6.2074 11.2453 6.15203C11.1714 6.09667 11.1117 6.02407 11.0714 5.94038L9.05362 1.90153L9.05197 12.7192Z" fill="#FFD433"/>
</svg>
