<svg width="75" height="33" viewBox="0 0 75 33" fill="none" xmlns="http://www.w3.org/2000/svg">
<path d="M37.445 31.3344L37.4735 30.3348L37.445 31.3344ZM5.44587 2.70825C4.94292 2.48009 4.35023 2.70285 4.12207 3.2058L0.403992 11.4019C0.175827 11.9048 0.398591 12.4975 0.901548 12.7257C1.4045 12.9539 1.99718 12.7311 2.22534 12.2281L5.53031 4.94272L12.8157 8.24768C13.3187 8.47584 13.9114 8.25308 14.1395 7.75013C14.3677 7.24717 14.1449 6.65449 13.642 6.42633L5.44587 2.70825ZM72.0308 0.764846C72.6317 14.6265 58.0804 30.922 37.4735 30.3348L37.4165 32.334C59.0165 32.9495 74.6871 15.8609 74.0289 0.678228L72.0308 0.764846ZM37.4735 30.3348C17.0842 29.7538 8.99769 11.3257 5.96881 3.2671L4.09669 3.97075C7.10182 11.9662 15.5988 31.7122 37.4165 32.334L37.4735 30.3348Z" fill="#707070"/>
</svg>
