<svg width="74" height="33" viewBox="0 0 74 33" fill="none" xmlns="http://www.w3.org/2000/svg">
<path d="M36.5812 1.27135L36.5618 2.27116L36.5812 1.27135ZM68.8393 29.6053C69.3443 29.8289 69.9349 29.6007 70.1585 29.0957L73.8019 20.8662C74.0255 20.3612 73.7973 19.7705 73.2923 19.547C72.7873 19.3234 72.1967 19.5515 71.9731 20.0565L68.7345 27.3717L61.4194 24.1331C60.9144 23.9095 60.3237 24.1377 60.1001 24.6427C59.8766 25.1477 60.1047 25.7383 60.6097 25.9619L68.8393 29.6053ZM2.27481 32.1542C1.54787 18.2985 15.9503 1.87135 36.5618 2.27116L36.6006 0.271537C14.9958 -0.14754 -0.518658 17.0829 0.277557 32.2589L2.27481 32.1542ZM36.5618 2.27116C56.9555 2.66675 65.2092 21.0205 68.3113 29.0512L70.1769 28.3306C67.0992 20.3628 58.423 0.694838 36.6006 0.271537L36.5618 2.27116Z" fill="#707070"/>
</svg>
