<svg width="21" height="24" viewBox="0 0 21 24" fill="none" xmlns="http://www.w3.org/2000/svg">
<path d="M6.125 10.5C5.64175 10.5 5.25 10.8358 5.25 11.25C5.25 11.6642 5.64175 12 6.125 12H14.875C15.3582 12 15.75 11.6642 15.75 11.25C15.75 10.8358 15.3582 10.5 14.875 10.5H6.125Z" fill="#292C2D"/>
<path d="M5.25 14.25C5.25 13.8358 5.64175 13.5 6.125 13.5H14.875C15.3582 13.5 15.75 13.8358 15.75 14.25C15.75 14.6642 15.3582 15 14.875 15H6.125C5.64175 15 5.25 14.6642 5.25 14.25Z" fill="#292C2D"/>
<path d="M5.25 17.25C5.25 16.8358 5.64175 16.5 6.125 16.5H9.625C10.1082 16.5 10.5 16.8358 10.5 17.25C10.5 17.6642 10.1082 18 9.625 18H6.125C5.64175 18 5.25 17.6642 5.25 17.25Z" fill="#292C2D"/>
<path d="M13.125 0H3.5C1.567 0 0 1.34314 0 3V21C0 22.6569 1.567 24 3.5 24H17.5C19.433 24 21 22.6569 21 21V6.75L13.125 0ZM13.125 1.5V4.5C13.125 5.74264 14.3003 6.75 15.75 6.75H19.25V21C19.25 21.8284 18.4665 22.5 17.5 22.5H3.5C2.5335 22.5 1.75 21.8284 1.75 21V3C1.75 2.17157 2.5335 1.5 3.5 1.5H13.125Z" fill="#292C2D"/>
</svg>
