<svg width="18" height="17" viewBox="0 0 18 17" fill="none" xmlns="http://www.w3.org/2000/svg">
<path d="M3.20068 16.1275C3.17754 16.2363 3.18493 16.3495 3.22201 16.4542C3.25909 16.559 3.32438 16.6512 3.4105 16.7203C3.49661 16.7895 3.60011 16.8328 3.70929 16.8455C3.81847 16.8581 3.92896 16.8396 4.02827 16.7919L8.9063 14.2568L13.7843 16.7919C13.8836 16.8396 13.9941 16.8581 14.1033 16.8455C14.2125 16.8328 14.316 16.7895 14.4021 16.7203C14.4882 16.6512 14.5535 16.559 14.5906 16.4542C14.6277 16.3495 14.6351 16.2363 14.6119 16.1275L13.6784 10.8119L17.5875 7.03986C17.6701 6.96045 17.7293 6.85946 17.7588 6.74806C17.7882 6.63666 17.7866 6.5192 17.7542 6.40864C17.7219 6.29809 17.6599 6.19876 17.5753 6.12163C17.4906 6.04451 17.3866 5.99259 17.2746 5.97163L11.8382 5.18962L9.41429 0.327219C9.36774 0.229202 9.29482 0.146489 9.20391 0.0886007C9.113 0.0307118 9.00779 0 8.90041 0C8.79303 0 8.68783 0.0307118 8.59692 0.0886007C8.50601 0.146489 8.43308 0.229202 8.38654 0.327219L5.96266 5.18962L0.524493 5.97163C0.41254 5.99259 0.308492 6.04451 0.223853 6.12163C0.139213 6.19876 0.0772805 6.29809 0.0449012 6.40864C0.012522 6.5192 0.0109579 6.63666 0.0403817 6.74806C0.0698056 6.85946 0.129071 6.96045 0.211626 7.03986L4.12246 10.8119L3.20068 16.1275ZM8.64389 13.0165L4.56149 15.1461L5.32347 10.6977C5.34169 10.5955 5.3348 10.4902 5.30341 10.3913C5.27203 10.2924 5.21711 10.2028 5.14349 10.1304L1.91726 7.01771L6.41177 6.37029C6.50482 6.35603 6.59306 6.31913 6.66894 6.26275C6.74482 6.20637 6.80606 6.1322 6.84743 6.04659L8.89957 1.93553L10.9534 6.04659C10.9948 6.1322 11.056 6.20637 11.1319 6.26275C11.2078 6.31913 11.296 6.35603 11.389 6.37029L15.8853 7.01771L12.6557 10.1304C12.582 10.2028 12.5271 10.2924 12.4957 10.3913C12.4643 10.4902 12.4575 10.5955 12.4757 10.6977L13.2461 15.1461L9.15693 13.0165C9.07764 12.975 8.98967 12.9533 8.90041 12.9533C8.81115 12.9533 8.72318 12.975 8.64389 13.0165Z" fill="#FFD433"/>
</svg>
