<svg width="19" height="17" viewBox="0 0 19 17" fill="none" xmlns="http://www.w3.org/2000/svg">
<path d="M4.51951 16.7936C4.4202 16.8413 4.30971 16.8598 4.20053 16.8472C4.09136 16.8345 3.98785 16.7912 3.90174 16.722C3.81562 16.6529 3.75033 16.5607 3.71325 16.4559C3.67617 16.3512 3.66879 16.238 3.69193 16.1292L4.61202 10.8136L0.702869 7.03986C0.62033 6.96056 0.56103 6.85971 0.531515 6.74843C0.502 6.63715 0.503417 6.51977 0.535611 6.40926C0.567805 6.29874 0.629523 6.19939 0.713952 6.12216C0.798381 6.04493 0.902236 5.99284 1.01405 5.97163L6.45054 5.18962L8.8761 0.327219C8.92264 0.229202 8.99557 0.146489 9.08648 0.0886007C9.17739 0.0307118 9.28259 0 9.38997 0C9.49736 0 9.60256 0.0307118 9.69347 0.0886007C9.78438 0.146489 9.8573 0.229202 9.90385 0.327219L12.3277 5.18962L17.7642 5.97163C17.8762 5.99259 17.9802 6.04451 18.0648 6.12163C18.1495 6.19876 18.2114 6.29809 18.2438 6.40864C18.2762 6.5192 18.2777 6.63666 18.2483 6.74806C18.2189 6.85946 18.1596 6.96045 18.0771 7.03986L14.1679 10.8119L15.088 16.1275C15.1112 16.2363 15.1038 16.3495 15.0667 16.4542C15.0296 16.559 14.9643 16.6512 14.8782 16.7203C14.7921 16.7895 14.6886 16.8328 14.5794 16.8455C14.4702 16.8581 14.3597 16.8396 14.2604 16.7919L9.38913 14.2585L4.51951 16.7936Z" fill="#FFD433"/>
</svg>
