<svg width="16" height="16" viewBox="0 0 16 16" fill="none" xmlns="http://www.w3.org/2000/svg">
<path fill-rule="evenodd" clip-rule="evenodd" d="M5.82845 10.1718C5.63319 9.97658 5.3166 9.97658 5.12134 10.1718L1.02515 14.268L1.02515 11.5003C1.02515 11.2241 0.80129 11.0003 0.525147 11.0003C0.249005 11.0003 0.0251465 11.2241 0.0251468 11.5003L0.0251465 15.4751C0.0251465 15.7513 0.249005 15.9751 0.525147 15.9751L4.49998 15.9751C4.77612 15.9751 4.99998 15.7513 4.99998 15.4751C4.99998 15.199 4.77612 14.9751 4.49998 14.9751L1.73225 14.9751L5.82845 10.8789C6.02371 10.6837 6.02371 10.3671 5.82845 10.1718Z" fill="black"/>
<path fill-rule="evenodd" clip-rule="evenodd" d="M10.1716 10.1718C10.3668 9.97658 10.6834 9.97658 10.8787 10.1718L14.9749 14.268L14.9749 11.5003C14.9749 11.2241 15.1987 11.0003 15.4749 11.0003C15.751 11.0003 15.9749 11.2241 15.9749 11.5003L15.9749 15.4751C15.9749 15.7513 15.751 15.9751 15.4749 15.9751L11.5 15.9751C11.2239 15.9751 11 15.7513 11 15.4751C11 15.199 11.2239 14.9751 11.5 14.9751L14.2677 14.9751L10.1716 10.8789C9.97629 10.6837 9.97629 10.3671 10.1716 10.1718Z" fill="black"/>
<path fill-rule="evenodd" clip-rule="evenodd" d="M10.1716 5.82865C10.3668 6.02391 10.6834 6.02391 10.8787 5.82865L14.9749 1.73246L14.9749 4.50023C14.9749 4.77637 15.1987 5.00023 15.4749 5.00023C15.751 5.00023 15.9749 4.77637 15.9749 4.50023L15.9749 0.52535C15.9749 0.249208 15.751 0.0253496 15.4749 0.0253496L11.5 0.0253525C11.2239 0.0253525 11 0.249211 11 0.525353C11 0.801496 11.2239 1.02535 11.5 1.02535L14.2677 1.02535L10.1716 5.12154C9.97629 5.31681 9.97629 5.63339 10.1716 5.82865Z" fill="black"/>
<path fill-rule="evenodd" clip-rule="evenodd" d="M5.82845 5.82865C5.63319 6.02391 5.3166 6.02391 5.12134 5.82865L1.02515 1.73246L1.02515 4.50023C1.02515 4.77637 0.80129 5.00023 0.525147 5.00023C0.249005 5.00023 0.0251465 4.77637 0.0251468 4.50023L0.0251465 0.52535C0.0251465 0.249208 0.249005 0.0253496 0.525147 0.0253496L4.49998 0.0253525C4.77612 0.0253525 4.99998 0.249211 4.99998 0.525353C4.99998 0.801496 4.77612 1.02535 4.49998 1.02535L1.73225 1.02535L5.82845 5.12154C6.02371 5.31681 6.02371 5.63339 5.82845 5.82865Z" fill="black"/>
</svg>
