<svg width="19" height="17" viewBox="0 0 19 17" fill="none" xmlns="http://www.w3.org/2000/svg">
<path d="M6.20829 5.18962L8.63217 0.327219C8.67872 0.229202 8.75164 0.146489 8.84255 0.0886007C8.93346 0.0307118 9.03866 0 9.14605 0C9.25343 0 9.35863 0.0307118 9.44954 0.0886007C9.54045 0.146489 9.61338 0.229202 9.65992 0.327219L12.0838 5.18962L17.5203 5.97163C17.6561 5.9927 17.7806 6.0607 17.8725 6.1641C17.9645 6.26751 18.0183 6.39995 18.0249 6.53896C18.0272 6.57072 18.0272 6.60261 18.0249 6.63437C18.0145 6.78868 17.9473 6.9334 17.8365 7.03986L13.924 10.8119L14.8441 16.1275C14.8672 16.2363 14.8598 16.3495 14.8228 16.4542C14.7857 16.559 14.7204 16.6512 14.6343 16.7203C14.5482 16.7895 14.4447 16.8328 14.3355 16.8455C14.2263 16.8581 14.1158 16.8396 14.0165 16.7919L9.14521 14.2585L4.26717 16.7936C4.21431 16.821 4.15756 16.84 4.09897 16.8498C4.00388 16.8642 3.90677 16.8551 3.8159 16.8233C3.72503 16.7915 3.64309 16.7379 3.57703 16.6672C3.51098 16.5964 3.46276 16.5106 3.43649 16.4169C3.41022 16.3232 3.40667 16.2245 3.42613 16.1292L4.34623 10.8136L0.458944 7.03986C0.397702 6.98182 0.348919 6.91163 0.315638 6.83366C0.282357 6.75569 0.265292 6.67161 0.265505 6.58667C0.265406 6.46648 0.297997 6.34859 0.359701 6.24592C0.403482 6.172 0.463088 6.10898 0.534123 6.06151C0.605158 6.01403 0.68581 5.98332 0.770129 5.97163L6.20829 5.18962ZM9.14352 12.9466C9.23304 12.9466 9.32128 12.9682 9.40088 13.0097L13.4917 15.1393L12.7213 10.6977C12.7031 10.5955 12.71 10.4902 12.7414 10.3913C12.7727 10.2924 12.8277 10.2028 12.9013 10.1304L16.1275 7.01771L11.6313 6.3703C11.5389 6.35552 11.4513 6.31838 11.3761 6.26203C11.3008 6.20568 11.2401 6.13178 11.199 6.04659L9.14521 1.93553L9.14352 12.9466Z" fill="#FFD433"/>
</svg>
