<svg width="32" height="24" viewBox="0 0 32 24" fill="none" xmlns="http://www.w3.org/2000/svg">
<path d="M1 3.13044C1 1.40154 2.62297 0 4.625 0H26.375C28.377 0 30 1.40154 30 3.13043V15.6522C30 17.3811 28.377 18.7826 26.375 18.7826H21.8438C21.2733 18.7826 20.736 19.0146 20.3937 19.4087L16.95 23.3739C16.225 24.2087 14.775 24.2087 14.05 23.3739L10.6063 19.4087C10.264 19.0146 9.72675 18.7826 9.15625 18.7826H4.625C2.62297 18.7826 1 17.3811 1 15.6522V3.13044ZM10.0625 9.3913C10.0625 8.52686 9.25102 7.82609 8.25 7.82609C7.24898 7.82609 6.4375 8.52686 6.4375 9.3913C6.4375 10.2557 7.24898 10.9565 8.25 10.9565C9.25102 10.9565 10.0625 10.2557 10.0625 9.3913ZM17.3125 9.3913C17.3125 8.52686 16.501 7.82609 15.5 7.82609C14.499 7.82609 13.6875 8.52686 13.6875 9.3913C13.6875 10.2557 14.499 10.9565 15.5 10.9565C16.501 10.9565 17.3125 10.2557 17.3125 9.3913ZM22.75 10.9565C23.751 10.9565 24.5625 10.2557 24.5625 9.3913C24.5625 8.52686 23.751 7.82609 22.75 7.82609C21.749 7.82609 20.9375 8.52686 20.9375 9.3913C20.9375 10.2557 21.749 10.9565 22.75 10.9565Z" fill="#131D22"/>
</svg>
