<svg width="40" height="30" viewBox="0 0 40 30" fill="none" xmlns="http://www.w3.org/2000/svg">
<rect x="20.1016" y="14.1768" width="2.75076" height="2.96235" fill="#F3704A"/>
<rect x="20.1016" y="17.5625" width="2.75076" height="2.96235" fill="#F3704A"/>
<rect x="16.7161" y="14.1768" width="2.75076" height="2.96235" fill="#F3704A"/>
<rect x="16.7161" y="17.5625" width="2.75076" height="2.96235" fill="#F3704A"/>
<circle cx="34.1125" cy="2.79625" r="2.79625" fill="#F3704A"/>
<path d="M32.5469 8.57355C32.4918 7.50563 33.3289 6.55957 34.3982 6.55957C35.2943 6.55957 36.045 7.23184 36.1095 8.12553C36.2428 9.97425 36.3714 13.0825 35.9714 15.3408C35.4222 18.4416 34.7774 20.4585 33.0091 23.0641C31.2826 25.608 29.4879 26.9204 26.8728 28.354C24.1507 29.8463 20.3723 30.2242 17.1393 29.6236C13.5172 28.9506 10.5798 27.1902 10.5798 27.1902C10.5798 27.1902 15.9841 28.1944 20.9481 27.1902C23.9232 26.5884 26.6045 24.6447 28.2481 23.0641C29.7202 21.6484 31.3419 18.9856 31.9511 16.3988C32.6365 13.4883 32.6455 10.4842 32.5469 8.57355Z" fill="#F3704A"/>
<circle cx="5.12376" cy="2.79625" r="2.79625" fill="#2387C2"/>
<path d="M3.36023 8.3198C3.36023 7.34728 4.14861 6.55957 5.12113 6.55957C6.07465 6.55957 6.8549 7.31703 6.88131 8.27019C6.92486 9.84182 6.9898 12.1855 7.03825 13.9341C6.83392 16.5046 8.11299 19.8191 9.7334 21.7945C11.3036 23.7087 14.4111 25.7053 16.8463 26.0493C20.3174 26.5395 24.0162 25.7091 24.0162 25.7091C24.0162 25.7091 21.8217 26.5715 18.9379 27.0844C15.7639 27.4018 11.664 27.3541 9.41601 25.7091C6.24882 23.3914 5.3521 22.5221 4.12609 19.467C3.7838 18.1907 3.36023 16.7162 3.36023 14.6715C3.36023 12.7035 3.36023 10.0478 3.36023 8.3198Z" fill="#2387C2"/>
<path d="M19.2231 6.52475C19.5615 6.29043 20.009 6.28746 20.3506 6.51729L31.1047 13.7537L20.2677 7.87944C19.9667 7.71627 19.6031 7.71845 19.3041 7.88522L8.78125 13.7537L19.2231 6.52475Z" fill="#F3704A"/>
<path d="M19.6784 0.211426L39.4692 14.2826V18.4087L19.6784 4.44336L7.82898 13.2246V8.99268L19.6784 0.211426Z" fill="#2387C2"/>
<path d="M0 14.4392L2.43336 12.6406V16.8726L0 18.6711V14.4392Z" fill="#2387C2"/>
</svg>
