<svg width="21" height="24" viewBox="0 0 21 24" fill="none" xmlns="http://www.w3.org/2000/svg">
<path fill-rule="evenodd" clip-rule="evenodd" d="M13.5 2.25C13.5 1.83579 13.1642 1.5 12.75 1.5H8.25C7.83579 1.5 7.5 1.83579 7.5 2.25V3.75C7.5 4.16421 7.83579 4.5 8.25 4.5H12.75C13.1642 4.5 13.5 4.16421 13.5 3.75V2.25ZM6 2.25C6 1.00736 7.00736 0 8.25 0H12.75C13.9926 0 15 1.00736 15 2.25V3.75C15 4.99264 13.9926 6 12.75 6H8.25C7.00736 6 6 4.99264 6 3.75V2.25ZM3 2.25H4.5V3.75H3C2.17157 3.75 1.5 4.42157 1.5 5.25V21C1.5 21.8284 2.17157 22.5 3 22.5H18C18.8284 22.5 19.5 21.8284 19.5 21V5.25C19.5 4.42157 18.8284 3.75 18 3.75H16.5V2.25H18C19.6569 2.25 21 3.59315 21 5.25V21C21 22.6569 19.6569 24 18 24H3C1.34315 24 0 22.6569 0 21V5.25C0 3.59314 1.34315 2.25 3 2.25ZM13.2289 8.10633C13.1633 7.88769 12.958 7.74123 12.7299 7.7504C12.5018 7.75957 12.3089 7.92204 12.2611 8.14524L10.4192 16.7407L8.72891 11.1063C8.67001 10.91 8.49723 10.7695 8.29299 10.7519C8.08876 10.7342 7.89446 10.843 7.80279 11.0264L5.69098 15.25H5.25C4.97386 15.25 4.75 15.4739 4.75 15.75C4.75 16.0261 4.97386 16.25 5.25 16.25H6C6.18939 16.25 6.36252 16.143 6.44721 15.9736L8.13337 12.6013L10.0211 18.8937C10.0867 19.1123 10.292 19.2588 10.5201 19.2496C10.7482 19.2404 10.9411 19.078 10.9889 18.8548L12.8308 10.2593L14.5211 15.8937C14.5845 16.1052 14.7792 16.25 15 16.25H15.75C16.0261 16.25 16.25 16.0261 16.25 15.75C16.25 15.4739 16.0261 15.25 15.75 15.25H15.372L13.2289 8.10633Z" fill="#292C2D"/>
</svg>
