<svg width="23" height="18" viewBox="0 0 23 18" fill="none" xmlns="http://www.w3.org/2000/svg">
<path d="M0 14C0 13.7239 0.223858 13.5 0.5 13.5H4C4.27614 13.5 4.5 13.7239 4.5 14V17.5C4.5 17.7761 4.27614 18 4 18H0.5C0.223858 18 0 17.7761 0 17.5V14Z" fill="#292C2D"/>
<path d="M6 9.5C6 9.22386 6.22386 9 6.5 9H10C10.2761 9 10.5 9.22386 10.5 9.5V17.5C10.5 17.7761 10.2761 18 10 18H6.5C6.22386 18 6 17.7761 6 17.5V9.5Z" fill="#292C2D"/>
<path d="M12 5C12 4.72386 12.2239 4.5 12.5 4.5H16C16.2761 4.5 16.5 4.72386 16.5 5V17.5C16.5 17.7761 16.2761 18 16 18H12.5C12.2239 18 12 17.7761 12 17.5V5Z" fill="#292C2D"/>
<path d="M18 0.5C18 0.223858 18.2239 0 18.5 0H22C22.2761 0 22.5 0.223858 22.5 0.5V17.5C22.5 17.7761 22.2761 18 22 18H18.5C18.2239 18 18 17.7761 18 17.5V0.5Z" fill="#292C2D"/>
</svg>
