<svg width="24" height="24" viewBox="0 0 24 24" fill="none" xmlns="http://www.w3.org/2000/svg">
<path d="M5.25 0C5.66421 0 6 0.335786 6 0.75V1.5H18V0.75C18 0.335786 18.3358 0 18.75 0C19.1642 0 19.5 0.335786 19.5 0.75V1.5H21C22.6569 1.5 24 2.84315 24 4.5V21C24 22.6569 22.6569 24 21 24H3C1.34315 24 0 22.6569 0 21V4.5C0 2.84315 1.34315 1.5 3 1.5H4.5V0.75C4.5 0.335786 4.83579 0 5.25 0ZM3 3C2.17157 3 1.5 3.67157 1.5 4.5V21C1.5 21.8284 2.17157 22.5 3 22.5H21C21.8284 22.5 22.5 21.8284 22.5 21V4.5C22.5 3.67157 21.8284 3 21 3H3Z" fill="#292C2D"/>
<path d="M3.75 6C3.75 5.58579 4.08579 5.25 4.5 5.25H19.5C19.9142 5.25 20.25 5.58579 20.25 6V7.5C20.25 7.91421 19.9142 8.25 19.5 8.25H4.5C4.08579 8.25 3.75 7.91421 3.75 7.5V6Z" fill="#292C2D"/>
</svg>
