<svg width="45" height="34" viewBox="0 0 45 34" fill="none" xmlns="http://www.w3.org/2000/svg">
<path d="M41.492 27.661C41.492 28.3946 41.2006 29.0981 40.6819 29.6169C40.1631 30.1356 39.4596 30.427 38.726 30.427H5.532C4.79841 30.427 4.09487 30.1356 3.57614 29.6169C3.05742 29.0981 2.766 28.3946 2.766 27.661V11.061C2.76732 10.3283 3.05933 9.62602 3.57791 9.10837C4.09649 8.59073 4.79928 8.3 5.532 8.3H8.773C10.974 8.29974 13.0847 7.42531 14.641 5.869L16.933 3.577C17.1899 3.32016 17.4948 3.11644 17.8304 2.97746C18.166 2.83848 18.5257 2.76696 18.889 2.767H25.37C25.7333 2.76696 26.093 2.83848 26.4286 2.97746C26.7642 3.11644 27.0691 3.32016 27.326 3.577L29.618 5.869C31.1741 7.42506 33.2844 8.29948 35.485 8.3H38.726C39.4596 8.3 40.1631 8.59142 40.6819 9.11014C41.2006 9.62887 41.492 10.3324 41.492 11.066V27.661ZM5.532 5.532C4.80544 5.532 4.086 5.67512 3.41476 5.95319C2.74353 6.23127 2.13364 6.63884 1.61993 7.15264C1.10623 7.66644 0.698762 8.2764 0.420811 8.94769C0.142861 9.61898 -0.000131247 10.3384 9.03916e-08 11.065V27.665C9.03916e-08 28.3915 0.14309 29.1108 0.421099 29.782C0.699108 30.4532 1.10659 31.063 1.62029 31.5767C2.13398 32.0904 2.74382 32.4979 3.415 32.7759C4.08617 33.0539 4.80553 33.197 5.532 33.197H38.726C40.1932 33.197 41.6003 32.6142 42.6377 31.5767C43.6752 30.5393 44.258 29.1322 44.258 27.665V11.065C44.258 9.59782 43.6752 8.19074 42.6377 7.15329C41.6003 6.11583 40.1932 5.533 38.726 5.533H35.485C34.7585 5.53307 34.0391 5.39005 33.3679 5.11209C32.6967 4.83413 32.0868 4.42668 31.573 3.913L29.282 1.62C28.7682 1.10632 28.1583 0.698873 27.4871 0.420912C26.8159 0.142951 26.0965 -7.49011e-05 25.37 2.94264e-08H18.888C18.1615 -7.49011e-05 17.4421 0.142951 16.7709 0.420912C16.0997 0.698873 15.4898 1.10632 14.976 1.62L12.685 3.912C12.1712 4.42568 11.5613 4.83313 10.8901 5.11109C10.2189 5.38905 9.4995 5.53207 8.773 5.532H5.532Z" fill="#2387C2"/>
<path d="M22.129 24.7299C21.063 24.7299 20.0209 24.4138 19.1345 23.8216C18.2481 23.2293 17.5573 22.3875 17.1493 21.4026C16.7413 20.4177 16.6346 19.334 16.8426 18.2884C17.0505 17.2429 17.5639 16.2824 18.3177 15.5286C19.0715 14.7748 20.0319 14.2615 21.0775 14.0535C22.123 13.8455 23.2068 13.9523 24.1917 14.3602C25.1766 14.7682 26.0184 15.459 26.6106 16.3454C27.2029 17.2318 27.519 18.2739 27.519 19.3399C27.519 20.7695 26.9511 22.1404 25.9403 23.1513C24.9295 24.1621 23.5585 24.7299 22.129 24.7299ZM22.129 26.8859C23.6214 26.8859 25.0803 26.4434 26.3212 25.6143C27.5621 24.7852 28.5293 23.6067 29.1005 22.2279C29.6717 20.8491 29.8212 19.3319 29.5301 17.8682C29.239 16.4044 28.5204 15.0598 27.4652 14.0045C26.41 12.9491 25.0655 12.2303 23.6018 11.9391C22.1381 11.6478 20.6208 11.7971 19.242 12.3681C17.8631 12.9391 16.6845 13.9061 15.8552 15.1469C15.0259 16.3877 14.5832 17.8465 14.583 19.3389C14.5829 20.33 14.778 21.3113 15.1571 22.227C15.5363 23.1426 16.0921 23.9746 16.7928 24.6754C17.4936 25.3762 18.3255 25.9322 19.241 26.3114C20.1566 26.6907 21.138 26.8859 22.129 26.8859Z" fill="#2387C2"/>
<path d="M9.19308 11.698C9.19308 12.0326 9.09387 12.3597 8.908 12.6379C8.72212 12.9161 8.45793 13.133 8.14881 13.2611C7.8397 13.3892 7.49955 13.4227 7.17136 13.3575C6.84317 13.2923 6.54168 13.1313 6.30501 12.8948C6.06834 12.6582 5.90712 12.3568 5.84172 12.0287C5.77632 11.7005 5.80968 11.3604 5.93759 11.0512C6.0655 10.742 6.28221 10.4777 6.56033 10.2916C6.83845 10.1056 7.16548 10.0062 7.50008 10.006C7.72236 10.0059 7.94249 10.0495 8.14789 10.1345C8.35329 10.2195 8.53993 10.3441 8.69715 10.5012C8.85438 10.6583 8.9791 10.8449 9.06419 11.0503C9.14929 11.2556 9.19308 11.4757 9.19308 11.698Z" fill="#2387C2"/>
</svg>
