<svg width="25" height="25" viewBox="0 0 25 25" fill="none" xmlns="http://www.w3.org/2000/svg">
<path d="M12.5281 23.385C10.3698 23.385 8.25984 22.745 6.46521 21.5458C4.67058 20.3467 3.27183 18.6423 2.44585 16.6482C1.61988 14.6541 1.40376 12.4599 1.82484 10.343C2.24592 8.22607 3.28528 6.28156 4.81149 4.75535C6.3377 3.22914 8.28221 2.18978 10.3991 1.7687C12.516 1.34761 14.7103 1.56373 16.7044 2.38971C18.6985 3.21569 20.4028 4.61443 21.602 6.40907C22.8011 8.2037 23.4411 10.3136 23.4411 12.472C23.4411 13.9051 23.1589 15.3242 22.6104 16.6482C22.062 17.9722 21.2582 19.1753 20.2448 20.1887C19.2314 21.202 18.0284 22.0059 16.7044 22.5543C15.3803 23.1027 13.9613 23.385 12.5281 23.385ZM12.5281 24.944C14.9948 24.944 17.4061 24.2126 19.4571 22.8422C21.5081 21.4718 23.1066 19.524 24.0506 17.2451C24.9947 14.9662 25.2417 12.4586 24.7606 10.0393C24.2795 7.62002 23.0918 5.39772 21.3476 3.65343C19.6035 1.90914 17.3814 0.721194 14.9621 0.239811C12.5429 -0.241571 10.0352 0.005229 7.75623 0.949004C5.47725 1.89278 3.5293 3.49114 2.1587 5.54198C0.788101 7.59282 0.0564113 10.004 0.0561524 12.4707C0.0559805 14.1086 0.378451 15.7306 1.00515 17.2439C1.63185 18.7572 2.5505 20.1323 3.70865 21.2906C4.8668 22.4488 6.24176 23.3676 7.75502 23.9945C9.26828 24.6214 10.8902 24.944 12.5281 24.944Z" fill="black"/>
<path d="M12.5279 7.23523C12.7015 7.23523 12.868 7.30418 12.9907 7.42693C13.1135 7.54967 13.1824 7.71614 13.1824 7.88972V11.8167H17.1094C17.283 11.8167 17.4494 11.8856 17.5722 12.0084C17.6949 12.1311 17.7639 12.2976 17.7639 12.4712C17.7639 12.6447 17.6949 12.8112 17.5722 12.934C17.4494 13.0567 17.283 13.1257 17.1094 13.1257H13.1824V17.0526C13.1824 17.2262 13.1135 17.3927 12.9907 17.5154C12.868 17.6381 12.7015 17.7071 12.5279 17.7071C12.3543 17.7071 12.1879 17.6381 12.0651 17.5154C11.9424 17.3927 11.8734 17.2262 11.8734 17.0526V13.1257H7.94648C7.7729 13.1257 7.60643 13.0567 7.48369 12.934C7.36095 12.8112 7.29199 12.6447 7.29199 12.4712C7.29199 12.2976 7.36095 12.1311 7.48369 12.0084C7.60643 11.8856 7.7729 11.8167 7.94648 11.8167H11.8734V7.88972C11.8734 7.71614 11.9424 7.54967 12.0651 7.42693C12.1879 7.30418 12.3543 7.23523 12.5279 7.23523Z" fill="black"/>
</svg>
