<svg width="28" height="30" viewBox="0 0 28 30" fill="none" xmlns="http://www.w3.org/2000/svg">
<path d="M20.8534 0.0150131C20.7802 -0.0562366 18.1417 0.043138 15.8457 2.2125C13.5497 4.37999 13.903 6.86623 13.9546 6.92998C14.0063 6.99373 17.2285 7.0931 19.2854 4.57124C21.3424 2.04938 20.9267 0.0881377 20.8534 0.0150131ZM27.9913 22.0143C27.8879 21.8343 22.9836 19.7005 23.4402 15.5981C23.8968 11.4937 27.0479 10.3687 27.0974 10.2468C27.147 10.125 25.8116 8.76559 24.3965 8.07747C23.3575 7.59232 22.2076 7.31437 21.03 7.26373C20.7974 7.2581 19.9897 7.0856 18.3291 7.48122C17.235 7.74185 14.7688 8.58559 14.0903 8.61934C13.4097 8.65309 11.3851 7.6406 9.20755 7.37247C7.81401 7.1381 6.33647 7.6181 5.27893 7.98747C4.22354 8.35497 2.21615 9.40122 0.811842 12.1818C-0.592469 14.9606 0.141994 19.363 0.667534 20.7318C1.19307 22.0986 2.01369 24.3393 3.40939 25.9743C4.65 27.8192 6.29555 29.0999 6.98263 29.5349C7.6697 29.9699 9.60817 30.2586 10.9522 29.6605C12.0334 29.083 13.9848 28.7511 14.7559 28.7755C15.5248 28.7999 17.0411 29.0642 18.594 29.7861C19.8239 30.1555 20.987 30.0017 22.1522 29.5892C23.3174 29.1749 25.0039 27.6036 26.9725 24.418C27.7199 22.9368 28.0602 22.1361 27.9913 22.0143Z" fill="white"/>
<path d="M20.8534 0.0150131C20.7802 -0.0562366 18.1417 0.043138 15.8457 2.2125C13.5497 4.37999 13.903 6.86623 13.9546 6.92998C14.0063 6.99373 17.2285 7.0931 19.2854 4.57124C21.3424 2.04938 20.9267 0.0881377 20.8534 0.0150131ZM27.9913 22.0143C27.8879 21.8343 22.9836 19.7005 23.4402 15.5981C23.8968 11.4937 27.0479 10.3687 27.0974 10.2468C27.147 10.125 25.8116 8.76559 24.3965 8.07747C23.3575 7.59232 22.2076 7.31437 21.03 7.26373C20.7974 7.2581 19.9897 7.0856 18.3291 7.48122C17.235 7.74185 14.7688 8.58559 14.0903 8.61934C13.4097 8.65309 11.3851 7.6406 9.20755 7.37247C7.81401 7.1381 6.33647 7.6181 5.27893 7.98747C4.22354 8.35497 2.21615 9.40122 0.811842 12.1818C-0.592469 14.9606 0.141994 19.363 0.667534 20.7318C1.19307 22.0986 2.01369 24.3393 3.40939 25.9743C4.65 27.8192 6.29555 29.0999 6.98263 29.5349C7.6697 29.9699 9.60817 30.2586 10.9522 29.6605C12.0334 29.083 13.9848 28.7511 14.7559 28.7755C15.5248 28.7999 17.0411 29.0642 18.594 29.7861C19.8239 30.1555 20.987 30.0017 22.1522 29.5892C23.3174 29.1749 25.0039 27.6036 26.9725 24.418C27.7199 22.9368 28.0602 22.1361 27.9913 22.0143Z" fill="white"/>
</svg>
