<svg width="10" height="10" viewBox="0 0 10 10" fill="none" xmlns="http://www.w3.org/2000/svg">
<path d="M9.75832 4.40833L5.59166 0.241662C5.51241 0.165795 5.41895 0.106324 5.31666 0.0666617C5.11377 -0.0166867 4.88621 -0.0166867 4.68333 0.0666617C4.58103 0.106324 4.48758 0.165795 4.40833 0.241662L0.241658 4.40833C0.16396 4.48603 0.102326 4.57827 0.0602756 4.67979C0.0182253 4.78131 -0.00341797 4.89011 -0.00341797 5C-0.00341797 5.22191 0.0847387 5.43474 0.241658 5.59166C0.398578 5.74858 0.611407 5.83674 0.833325 5.83674C1.05524 5.83674 1.26807 5.74858 1.42499 5.59166L4.16666 2.84166V9.16666C4.16666 9.38768 4.25446 9.59964 4.41074 9.75592C4.56702 9.9122 4.77898 10 4.99999 10C5.22101 10 5.43297 9.9122 5.58925 9.75592C5.74553 9.59964 5.83333 9.38768 5.83333 9.16666V2.84166L8.57499 5.59166C8.65246 5.66977 8.74463 5.73176 8.84618 5.77407C8.94773 5.81638 9.05665 5.83816 9.16666 5.83816C9.27667 5.83816 9.38559 5.81638 9.48714 5.77407C9.58869 5.73176 9.68086 5.66977 9.75832 5.59166C9.83643 5.51419 9.89843 5.42203 9.94074 5.32048C9.98304 5.21893 10.0048 5.11001 10.0048 5C10.0048 4.88999 9.98304 4.78106 9.94074 4.67951C9.89843 4.57797 9.83643 4.4858 9.75832 4.40833Z" fill="#FBFBFB"/>
</svg>
