<svg width="18" height="20" viewBox="0 0 18 20" fill="none" xmlns="http://www.w3.org/2000/svg">
<path d="M16.08 10.42L9.90004 16.61C9.08985 17.33 8.03518 17.7133 6.95176 17.6814C5.86834 17.6495 4.83804 17.2049 4.07161 16.4384C3.30518 15.672 2.86055 14.6417 2.82865 13.5583C2.79676 12.4749 3.18002 11.4202 3.90004 10.61L11.9 2.61C12.3777 2.1563 13.0113 1.90333 13.67 1.90333C14.3288 1.90333 14.9624 2.1563 15.44 2.61C15.9054 3.08159 16.1663 3.71747 16.1663 4.38C16.1663 5.04253 15.9054 5.67841 15.44 6.15L8.54004 13.04C8.47175 13.1135 8.38965 13.1729 8.29841 13.2147C8.20718 13.2565 8.10861 13.28 8.00832 13.2837C7.90803 13.2874 7.808 13.2713 7.71392 13.2364C7.61985 13.2014 7.53358 13.1483 7.46004 13.08C7.3865 13.0117 7.32713 12.9296 7.28532 12.8384C7.24351 12.7471 7.22008 12.6486 7.21636 12.5483C7.21265 12.448 7.22872 12.348 7.26367 12.2539C7.29862 12.1598 7.35175 12.0735 7.42004 12L12.55 6.88C12.7383 6.6917 12.8441 6.4363 12.8441 6.17C12.8441 5.9037 12.7383 5.6483 12.55 5.46C12.3617 5.2717 12.1063 5.16591 11.84 5.16591C11.5737 5.16591 11.3183 5.2717 11.13 5.46L6.00004 10.6C5.74334 10.8547 5.5396 11.1577 5.40057 11.4915C5.26153 11.8253 5.18995 12.1834 5.18995 12.545C5.18995 12.9066 5.26153 13.2647 5.40057 13.5985C5.5396 13.9323 5.74334 14.2353 6.00004 14.49C6.52441 14.9895 7.22085 15.2681 7.94504 15.2681C8.66923 15.2681 9.36567 14.9895 9.89004 14.49L16.78 7.59C17.5749 6.73695 18.0077 5.60867 17.9871 4.44286C17.9665 3.27706 17.4942 2.16475 16.6698 1.34027C15.8453 0.515789 14.733 0.0435177 13.5672 0.0229484C12.4014 0.0023791 11.2731 0.435118 10.42 1.23L2.42004 9.23C1.34124 10.4248 0.765066 11.9899 0.811571 13.599C0.858076 15.2081 1.52367 16.7372 2.66968 17.8678C3.81568 18.9983 5.35371 19.6431 6.96332 19.6677C8.57293 19.6923 10.13 19.0949 11.31 18L17.5 11.82C17.5933 11.7268 17.6672 11.6161 17.7177 11.4942C17.7682 11.3724 17.7941 11.2419 17.7941 11.11C17.7941 10.9781 17.7682 10.8476 17.7177 10.7257C17.6672 10.6039 17.5933 10.4932 17.5 10.4C17.4068 10.3068 17.2961 10.2328 17.1743 10.1823C17.0525 10.1319 16.9219 10.1059 16.79 10.1059C16.6582 10.1059 16.5276 10.1319 16.4058 10.1823C16.284 10.2328 16.1733 10.3068 16.08 10.4V10.42Z" fill="#707070"/>
</svg>
