<svg width="18" height="18" viewBox="0 0 18 18" fill="none" xmlns="http://www.w3.org/2000/svg">
<path d="M0.256568 1.25528C0.180432 1.1921 0.118362 1.11384 0.0743124 1.02548C0.0302632 0.937112 0.0052022 0.840584 0.000727375 0.742048C-0.00374745 0.643512 0.012462 0.545129 0.0483222 0.453172C0.0841824 0.361215 0.138907 0.277701 0.209006 0.207954C0.279105 0.138208 0.363042 0.0837588 0.455464 0.048079C0.547887 0.0123993 0.646767 -0.00372859 0.745802 0.000723714C0.844836 0.00517602 0.941852 0.0301108 1.03066 0.0739384C1.11948 0.117766 1.19813 0.179524 1.26163 0.255277L8.59855 7.55528L15.9355 0.255277C15.999 0.179524 16.0776 0.117766 16.1664 0.0739384C16.2553 0.0301108 16.3523 0.00517602 16.4513 0.000723714C16.5503 -0.00372859 16.6492 0.0123993 16.7416 0.048079C16.8341 0.0837588 16.918 0.138208 16.9881 0.207954C17.0582 0.277701 17.1129 0.361215 17.1488 0.453172C17.1846 0.545129 17.2008 0.643512 17.1964 0.742048C17.1919 0.840584 17.1668 0.937112 17.1228 1.02548C17.0787 1.11384 17.0167 1.1921 16.9405 1.25528L9.60361 8.55528L16.9405 15.8553C17.0546 15.9914 17.1134 16.165 17.1054 16.342C17.0973 16.5191 17.023 16.6867 16.8971 16.812C16.7711 16.9374 16.6026 17.0113 16.4247 17.0193C16.2468 17.0273 16.0723 16.9688 15.9355 16.8553L8.59855 9.55528L1.26163 16.8553C1.12483 16.9688 0.950327 17.0273 0.772393 17.0193C0.594459 17.0113 0.425965 16.9374 0.300018 16.812C0.174072 16.6867 0.0997791 16.5191 0.0917393 16.342C0.0836994 16.165 0.142493 15.9914 0.256568 15.8553L7.59349 8.55528L0.256568 1.25528Z" fill="#292C2D"/>
</svg>
