<svg width="101" height="179" viewBox="0 0 101 179" fill="none" xmlns="http://www.w3.org/2000/svg">
<g filter="url(#filter0_d_3002_92)">
<path d="M71.4329 161.642C68.075 169.363 56.5355 175 38.1586 175C19.7818 175 9.0055 169.056 3.51066 161.642C-0.305186 154.656 17.8583 149.631 38.1586 148.283C56.4748 146.383 75.554 154.411 71.4329 161.642Z" fill="#FFCECE" fill-opacity="0.73" shape-rendering="crispEdges"/>
</g>
<path d="M36.0144 164.671L38.8763 24.881L56.6204 2.92998L36.0144 164.671Z" fill="#E86958"/>
<path opacity="0.6" d="M36.1619 165.148L38.8764 24.881L56.6205 2.92996L36.1619 165.148Z" fill="white"/>
<path d="M35.8311 165.774L38.8762 24.881L68.4561 28.5214L35.8311 165.774Z" fill="#E86958"/>
<path opacity="0.2" d="M35.3896 164.34L38.8764 24.881L68.4563 28.5214L35.3896 164.34Z" fill="black"/>
<path d="M36.6035 166.582L49.3933 49.8185L68.4515 28.5229L36.6035 166.582Z" fill="#E86958"/>
<path opacity="0.6" d="M36.1619 165.148L49.3932 49.8185L68.4514 28.5229L36.1619 165.148Z" fill="white"/>
<path d="M56.8832 127.043L57.4768 127.308L63.8876 112.922L63.2939 112.657L56.8832 127.043Z" fill="#E86958"/>
<path d="M66.1294 106.309L66.7231 106.574L69.0287 101.4L68.435 101.136L66.1294 106.309Z" fill="#E86958"/>
<path d="M36.0146 164.671L49.3932 49.8185L80.4429 70.2672L36.0146 164.671Z" fill="#E86958"/>
<path d="M83.5999 4.5552C83.6184 4.7188 83.6056 4.88442 83.5623 5.04328L77.9258 25.6775C77.8866 25.8482 77.8133 26.0091 77.7103 26.1508C77.6073 26.2924 77.4767 26.4117 77.3265 26.5017C77.1762 26.5916 77.0093 26.6502 76.8358 26.6741C76.6623 26.6979 76.4858 26.6864 76.3169 26.6404C76.1479 26.5943 75.99 26.5146 75.8527 26.406C75.7153 26.2974 75.6013 26.1621 75.5175 26.0084C75.4336 25.8546 75.3818 25.6855 75.3649 25.5112C75.3481 25.3369 75.3666 25.161 75.4194 24.994L81.0547 4.34889C81.1354 4.05789 81.3148 3.80406 81.5622 3.63093C81.8096 3.45781 82.1096 3.37621 82.4106 3.40014C82.7116 3.42407 82.9949 3.55204 83.2118 3.76208C83.4287 3.97212 83.5658 4.25114 83.5994 4.55122L83.5999 4.5552Z" fill="#E86958"/>
<path opacity="0.3" d="M83.5999 4.5552C83.6184 4.7188 83.6056 4.88442 83.5623 5.04328L77.9258 25.6775C77.8866 25.8482 77.8133 26.0091 77.7103 26.1508C77.6073 26.2924 77.4767 26.4117 77.3265 26.5017C77.1762 26.5916 77.0093 26.6502 76.8358 26.6741C76.6623 26.6979 76.4858 26.6864 76.3169 26.6404C76.1479 26.5943 75.99 26.5146 75.8527 26.406C75.7153 26.2974 75.6013 26.1621 75.5175 26.0084C75.4336 25.8546 75.3818 25.6855 75.3649 25.5112C75.3481 25.3369 75.3666 25.161 75.4194 24.994L81.0547 4.34889C81.1354 4.05789 81.3148 3.80406 81.5622 3.63093C81.8096 3.45781 82.1096 3.37621 82.4106 3.40014C82.7116 3.42407 82.9949 3.55204 83.2118 3.76208C83.4287 3.97212 83.5658 4.25114 83.5994 4.55122L83.5999 4.5552Z" fill="black"/>
<path d="M72.3945 6.97849C72.4106 7.14074 72.3945 7.30458 72.3472 7.46061L69.2943 18.5487C69.1931 18.8688 68.9719 19.1373 68.6771 19.298C68.3823 19.4587 68.0368 19.4991 67.7129 19.4108C67.389 19.3225 67.1118 19.1122 66.9394 18.8241C66.767 18.5361 66.7127 18.1924 66.7879 17.8652L69.8219 6.77923C69.9047 6.48703 70.0861 6.23249 70.3353 6.05885C70.5845 5.88521 70.8861 5.80318 71.1889 5.82668C71.4916 5.85017 71.777 5.97777 71.9964 6.18777C72.2158 6.39777 72.3557 6.67723 72.3925 6.97871L72.3945 6.97849Z" fill="#E86958"/>
<path opacity="0.5" d="M72.3945 6.97849C72.4106 7.14074 72.3945 7.30458 72.3472 7.46061L69.2943 18.5487C69.1931 18.8688 68.9719 19.1373 68.6771 19.298C68.3823 19.4587 68.0368 19.4991 67.7129 19.4108C67.389 19.3225 67.1118 19.1122 66.9394 18.8241C66.767 18.5361 66.7127 18.1924 66.7879 17.8652L69.8219 6.77923C69.9047 6.48703 70.0861 6.23249 70.3353 6.05885C70.5845 5.88521 70.8861 5.80318 71.1889 5.82668C71.4916 5.85017 71.777 5.97777 71.9964 6.18777C72.2158 6.39777 72.3557 6.67723 72.3925 6.97871L72.3945 6.97849Z" fill="white"/>
<path d="M86.0184 27.9441C86.0343 28.1055 86.0213 28.2684 85.9801 28.4252L80.4607 48.5545C80.4215 48.7252 80.3482 48.8861 80.2452 49.0278C80.1422 49.1694 80.0116 49.2887 79.8614 49.3787C79.7111 49.4686 79.5442 49.5272 79.3707 49.5511C79.1972 49.5749 79.0207 49.5634 78.8518 49.5174C78.6828 49.4713 78.5249 49.3916 78.3876 49.283C78.2502 49.1744 78.1362 49.0391 78.0524 48.8854C77.9685 48.7316 77.9167 48.5625 77.8998 48.3882C77.883 48.2139 77.9015 48.038 77.9543 47.871L83.4508 27.7443C83.5315 27.4533 83.7109 27.1995 83.9583 27.0263C84.2057 26.8532 84.5056 26.7716 84.8066 26.7956C85.1077 26.8195 85.3909 26.9475 85.6079 27.1575C85.8248 27.3675 85.9619 27.6465 85.9955 27.9466L86.0184 27.9441Z" fill="#E86958"/>
<path opacity="0.3" d="M86.0184 27.9441C86.0343 28.1055 86.0213 28.2684 85.9801 28.4252L80.4607 48.5545C80.4215 48.7252 80.3482 48.8861 80.2452 49.0278C80.1422 49.1694 80.0116 49.2887 79.8614 49.3787C79.7111 49.4686 79.5442 49.5272 79.3707 49.5511C79.1972 49.5749 79.0207 49.5634 78.8518 49.5174C78.6828 49.4713 78.5249 49.3916 78.3876 49.283C78.2502 49.1744 78.1362 49.0391 78.0524 48.8854C77.9685 48.7316 77.9167 48.5625 77.8998 48.3882C77.883 48.2139 77.9015 48.038 77.9543 47.871L83.4508 27.7443C83.5315 27.4533 83.7109 27.1995 83.9583 27.0263C84.2057 26.8532 84.5056 26.7716 84.8066 26.7956C85.1077 26.8195 85.3909 26.9475 85.6079 27.1575C85.8248 27.3675 85.9619 27.6465 85.9955 27.9466L86.0184 27.9441Z" fill="black"/>
<defs>
<filter id="filter0_d_3002_92" x="0" y="146" width="75" height="33" filterUnits="userSpaceOnUse" color-interpolation-filters="sRGB">
<feFlood flood-opacity="0" result="BackgroundImageFix"/>
<feColorMatrix in="SourceAlpha" type="matrix" values="0 0 0 0 0 0 0 0 0 0 0 0 0 0 0 0 0 0 127 0" result="hardAlpha"/>
<feOffset dy="1"/>
<feGaussianBlur stdDeviation="1.5"/>
<feComposite in2="hardAlpha" operator="out"/>
<feColorMatrix type="matrix" values="0 0 0 0 0 0 0 0 0 0 0 0 0 0 0 0 0 0 0.25 0"/>
<feBlend mode="normal" in2="BackgroundImageFix" result="effect1_dropShadow_3002_92"/>
<feBlend mode="normal" in="SourceGraphic" in2="effect1_dropShadow_3002_92" result="shape"/>
</filter>
</defs>
</svg>
