<svg width="211" height="184" viewBox="0 0 211 184" fill="none" xmlns="http://www.w3.org/2000/svg">
<path d="M59.389 54.0144C19.489 77.3014 17.101 155.926 73.855 154.421C99.233 153.746 106.648 127.134 129.555 117.794C151.055 109.02 169.596 126.615 191.301 106.694C216.876 83.2414 220.55 25.8803 182.537 22.0453C165.985 20.3743 159.603 36.9003 145.137 40.5583C115.823 47.9753 89.037 36.7204 59.389 54.0144Z" fill="#2387C2"/>
<path opacity="0.9" d="M59.389 54.0144C19.489 77.3014 17.101 155.926 73.855 154.421C99.233 153.746 106.648 127.134 129.555 117.794C151.055 109.02 169.596 126.615 191.301 106.694C216.876 83.2414 220.55 25.8803 182.537 22.0453C165.985 20.3743 159.603 36.9003 145.137 40.5583C115.823 47.9753 89.037 36.7204 59.389 54.0144Z" fill="white"/>
<path d="M0 36.7793L148.074 58.0973L167.94 78.1483L0 36.7793Z" fill="#2387C2"/>
<path opacity="0.6" d="M0 36.7793L148.074 58.0973L167.94 78.1483L0 36.7793Z" fill="white"/>
<path d="M0 36.7793L148.074 58.0973L141.202 87.0973L0 36.7793Z" fill="#2387C2"/>
<path opacity="0.2" d="M0 36.7793L148.074 58.0973L141.202 87.0973L0 36.7793Z" fill="black"/>
<path d="M138.161 3.21132L146.754 43.4823C146.977 44.5339 146.775 45.6312 146.19 46.5335C145.606 47.4357 144.687 48.0693 143.636 48.2953L66.9361 64.6633C65.8846 64.8851 64.7881 64.6816 63.8863 64.0973C62.9844 63.5131 62.3505 62.5956 62.1231 61.5453L53.5231 21.2743C53.3015 20.222 53.5058 19.1248 54.0912 18.2228C54.6767 17.3207 55.5957 16.6874 56.6471 16.4613L133.347 0.0933191C134.399 -0.128278 135.497 0.0760275 136.399 0.661511C137.301 1.24699 137.934 2.16597 138.16 3.21732L138.161 3.21132Z" fill="#2387C2"/>
<path opacity="0.4" d="M138.161 3.21132L146.754 43.4823C146.977 44.5339 146.775 45.6312 146.19 46.5335C145.606 47.4357 144.687 48.0693 143.636 48.2953L66.9361 64.6633C65.8846 64.8851 64.7881 64.6816 63.8863 64.0973C62.9844 63.5131 62.3505 62.5956 62.1231 61.5453L53.5231 21.2743C53.3015 20.222 53.5058 19.1248 54.0912 18.2228C54.6767 17.3207 55.5957 16.6874 56.6471 16.4613L133.347 0.0933191C134.399 -0.128278 135.497 0.0760275 136.399 0.661511C137.301 1.24699 137.934 2.16597 138.16 3.21732L138.161 3.21132Z" fill="black"/>
<path d="M136.271 0.574328L110.647 32.0313C108.27 34.9477 104.97 36.9655 101.29 37.7508C97.6113 38.5362 93.7742 38.0421 90.414 36.3503L54.177 18.0993C54.7634 17.2572 55.6483 16.6698 56.652 16.4563L133.352 0.0883281C134.351 -0.123966 135.394 0.0496512 136.271 0.574328Z" fill="#2387C2"/>
<path d="M0 36.7793L122.131 65.8073L141.201 87.0923L0 36.7793Z" fill="#2387C2"/>
<path opacity="0.6" d="M0 36.7793L122.131 65.8073L141.201 87.0923L0 36.7793Z" fill="white"/>
<path d="M44.5512 64.7574L44.2229 65.3184L57.816 73.2726L58.1443 72.7117L44.5512 64.7574Z" fill="#2387C2"/>
<path d="M64.1422 76.2283L63.814 76.7893L68.7025 79.6499L69.0308 79.0889L64.1422 76.2283Z" fill="#2387C2"/>
<path d="M0 36.7793L122.131 65.8073L98.391 94.4193L0 36.7793Z" fill="#2387C2"/>
<path d="M163.357 104.785C163.192 104.786 163.029 104.755 162.876 104.694L142.987 96.8223C142.822 96.7645 142.67 96.674 142.54 96.556C142.411 96.4381 142.307 96.2952 142.234 96.1359C142.161 95.9767 142.121 95.8044 142.116 95.6293C142.112 95.4542 142.143 95.2801 142.207 95.1172C142.271 94.9544 142.368 94.8062 142.491 94.6816C142.614 94.557 142.761 94.4586 142.923 94.3922C143.085 94.3258 143.259 94.2928 143.434 94.2952C143.609 94.2977 143.782 94.3354 143.942 94.4063L163.842 102.278C164.122 102.39 164.355 102.597 164.5 102.862C164.645 103.127 164.693 103.434 164.636 103.73C164.579 104.027 164.421 104.294 164.188 104.487C163.955 104.679 163.663 104.785 163.361 104.785H163.357Z" fill="#2387C2"/>
<path opacity="0.3" d="M163.357 104.785C163.192 104.786 163.029 104.755 162.876 104.694L142.987 96.8223C142.822 96.7645 142.67 96.674 142.54 96.556C142.411 96.4381 142.307 96.2952 142.234 96.1359C142.161 95.9767 142.121 95.8044 142.116 95.6293C142.112 95.4542 142.143 95.2801 142.207 95.1172C142.271 94.9544 142.368 94.8062 142.491 94.6816C142.614 94.557 142.761 94.4586 142.923 94.3922C143.085 94.3258 143.259 94.2928 143.434 94.2952C143.609 94.2977 143.782 94.3354 143.942 94.4063L163.842 102.278C164.122 102.39 164.355 102.597 164.5 102.862C164.645 103.127 164.693 103.434 164.636 103.73C164.579 104.027 164.421 104.294 164.188 104.487C163.955 104.679 163.663 104.785 163.361 104.785H163.357Z" fill="black"/>
<path d="M162.181 93.3813C162.018 93.3795 161.857 93.3455 161.707 93.2813L151.022 89.0273C150.715 88.8914 150.472 88.6421 150.345 88.3314C150.218 88.0207 150.216 87.6729 150.339 87.3606C150.462 87.0484 150.702 86.796 151.007 86.6564C151.313 86.5167 151.66 86.5005 151.977 86.6113L162.662 90.8463C162.943 90.9607 163.176 91.169 163.322 91.4358C163.467 91.7025 163.515 92.0113 163.458 92.3097C163.402 92.6081 163.244 92.8777 163.011 93.0726C162.778 93.2676 162.485 93.376 162.181 93.3793V93.3813Z" fill="#2387C2"/>
<path opacity="0.5" d="M162.181 93.3813C162.018 93.3795 161.857 93.3455 161.707 93.2813L151.022 89.0273C150.715 88.8914 150.472 88.6421 150.345 88.3314C150.218 88.0207 150.216 87.6729 150.339 87.3606C150.462 87.0484 150.702 86.796 151.007 86.6564C151.313 86.5167 151.66 86.5005 151.977 86.6113L162.662 90.8463C162.943 90.9607 163.176 91.169 163.322 91.4358C163.467 91.7025 163.515 92.0113 163.458 92.3097C163.402 92.6081 163.244 92.8777 163.011 93.0726C162.778 93.2676 162.485 93.376 162.181 93.3793V93.3813Z" fill="white"/>
<path d="M139.844 104.616C139.682 104.614 139.521 104.584 139.37 104.525L119.97 96.8253C119.805 96.7675 119.653 96.677 119.523 96.559C119.394 96.4411 119.29 96.2982 119.217 96.1389C119.144 95.9797 119.104 95.8074 119.099 95.6323C119.095 95.4573 119.126 95.2831 119.19 95.1202C119.254 94.9574 119.351 94.8092 119.474 94.6846C119.597 94.56 119.744 94.4616 119.906 94.3952C120.068 94.3288 120.242 94.2958 120.417 94.2983C120.592 94.3007 120.765 94.3385 120.925 94.4093L140.325 102.086C140.605 102.198 140.838 102.405 140.983 102.67C141.128 102.935 141.176 103.242 141.119 103.538C141.062 103.835 140.904 104.102 140.671 104.295C140.438 104.487 140.146 104.593 139.844 104.593V104.616Z" fill="#2387C2"/>
<path opacity="0.3" d="M139.844 104.616C139.682 104.614 139.521 104.584 139.37 104.525L119.97 96.8253C119.805 96.7675 119.653 96.677 119.523 96.559C119.394 96.4411 119.29 96.2982 119.217 96.1389C119.144 95.9797 119.104 95.8074 119.099 95.6323C119.095 95.4573 119.126 95.2831 119.19 95.1202C119.254 94.9574 119.351 94.8092 119.474 94.6846C119.597 94.56 119.744 94.4616 119.906 94.3952C120.068 94.3288 120.242 94.2958 120.417 94.2983C120.592 94.3007 120.765 94.3385 120.925 94.4093L140.325 102.086C140.605 102.198 140.838 102.405 140.983 102.67C141.128 102.935 141.176 103.242 141.119 103.538C141.062 103.835 140.904 104.102 140.671 104.295C140.438 104.487 140.146 104.593 139.844 104.593V104.616Z" fill="black"/>
<path d="M110.195 183.082C165.757 183.082 210.799 180.005 210.799 176.208C210.799 172.412 165.757 169.334 110.195 169.334C54.633 169.334 9.59106 172.412 9.59106 176.208C9.59106 180.005 54.633 183.082 110.195 183.082Z" fill="#F5F5F5"/>
<path d="M168.354 58.5213C168.354 58.5213 165.175 58.4043 162.534 62.6213C160.734 65.4963 154.454 76.2813 154.454 76.2813C154.454 76.2813 142.234 73.5003 141.573 72.9263C140.912 72.3523 140.929 70.8533 140.824 70.0753C140.795 69.0265 140.955 67.981 141.298 66.9893C141.439 66.1173 140.045 66.4033 139.354 67.7213C138.845 68.6933 138.809 69.6773 138.37 69.7883C137.769 69.562 137.193 69.2713 136.654 68.9213C135.899 68.3823 134.529 67.4923 133.492 67.9023C133.322 67.9721 133.171 68.0809 133.051 68.2199C132.931 68.3589 132.846 68.5241 132.801 68.7023C132.765 69.2287 132.634 69.7443 132.415 70.2243C132.25 70.43 132.112 70.6562 132.005 70.8973C131.905 71.2253 132.052 71.4833 132.005 71.8223C131.964 72.2733 131.466 72.5713 131.419 73.0223C131.366 73.3503 131.548 73.6663 131.548 74.0003C131.548 74.2113 131.466 74.4163 131.472 74.6263C131.496 74.8331 131.564 75.0324 131.672 75.2102C131.78 75.3881 131.925 75.5403 132.098 75.6563C133.179 76.4851 134.413 77.094 135.728 77.4483C136.84 77.8233 138.31 78.0343 139.569 78.3383C140.828 78.6423 155.237 84.8663 157.134 83.2913C159.031 81.7163 168.665 67.3613 168.665 67.3613C170.854 61.5073 168.354 58.5213 168.354 58.5213Z" fill="#FFA8A7"/>
<path d="M173.934 57.3133C172.012 57.0823 170.065 57.1614 168.167 57.5473C166.983 57.8338 165.871 58.3642 164.903 59.1046C163.935 59.845 163.133 60.7791 162.546 61.8473C160.327 65.4603 156.646 71.6603 156.646 71.6603C158.302 74.1689 160.86 75.9444 163.789 76.6193L170.569 66.1913L173.934 57.3133Z" fill="#2387C2"/>
<path d="M186.218 161.852H181.083V170.646H186.218V161.852Z" fill="#FFA8A7"/>
<path d="M172.008 164.065L166.873 164.241L166.615 154.941L172.008 154.765V164.065Z" fill="#FFA8A7"/>
<path d="M188.414 96.1753C188.414 101.082 187.547 129.619 187.547 129.619C187.664 131.03 189.023 133.542 189.128 138.624C189.28 146.001 186.441 166.248 186.441 166.248C185.554 166.685 184.582 166.921 183.593 166.94C182.605 166.959 181.625 166.761 180.721 166.359C180.721 166.359 178.379 138.916 177.471 131.615C176.671 125.245 175.305 107.937 175.305 107.937L172.887 128.737C173.486 131.427 173.701 134.188 173.525 136.937C173.285 140.31 172.354 161.218 172.354 161.218C171.459 161.723 170.464 162.025 169.439 162.102C168.414 162.18 167.385 162.033 166.423 161.669C166.423 161.669 162.799 131.869 162.74 128.769C162.676 125.256 164.081 89.1883 164.081 89.1883L188.414 96.1753Z" fill="#292C2D"/>
<path d="M185.035 60.0673C186.169 60.5649 187.059 61.491 187.512 62.6433C188.04 64.0661 188.294 65.576 188.261 67.0933V77.1643L188.407 96.1703C184.577 98.275 180.225 99.2425 175.863 98.9591C171.502 98.6756 167.312 97.1531 163.786 94.5703C163.786 94.5703 164.225 70.1023 164.225 66.1033V65.5533C164.315 64.2089 164.701 62.901 165.357 61.7238C166.012 60.5467 166.92 59.5294 168.016 58.7453C169.112 57.9611 170.368 57.4296 171.693 57.1889C173.019 56.9482 174.382 57.0043 175.683 57.3533L180.338 58.5533L185.022 60.0933L185.035 60.0673Z" fill="#F6F6F6"/>
<path d="M181.083 168.111V167.373C180.591 167.59 179.449 171.946 177.412 173.814C175.79 175.289 173.583 176.999 173.021 178.644C172.459 180.289 176.101 181.308 177.611 181.039C179.368 180.729 182.418 179.487 183.185 178.339C183.952 177.191 184.309 175.499 184.942 174.656C185.575 173.813 187.003 172.899 187.337 171.898C187.437 170.99 187.337 170.071 187.044 169.205C186.786 168.216 186.544 167.296 186.236 167.378V167.964C185.505 168.541 184.597 168.848 183.666 168.831C182.904 168.831 181.077 168.685 181.083 168.111Z" fill="#263238"/>
<path d="M166.814 162.659C166.551 162.659 166.334 163.045 165.742 163.678C164.865 164.569 163.843 165.305 162.721 165.856C160.8 166.816 157.059 168.298 155.367 169.065C154.307 169.539 154.354 170.822 155.449 171.542C156.544 172.262 159.185 172.795 162.349 172.087C164.076 171.701 166.325 170.108 167.742 170.187C169.159 170.266 171.842 170.251 172.877 169.531C173.912 168.811 173.509 167.259 173.211 165.931C172.889 164.485 172.485 162.225 172.005 162.324V162.824C171.384 163.761 168.199 164.141 166.841 163.45L166.814 162.659Z" fill="#263238"/>
<path d="M175.3 107.938C172.644 107.111 170.202 105.712 168.145 103.838C169.522 105.939 171.41 107.656 173.631 108.827L173.087 126.978L175.3 107.938Z" fill="#263238"/>
<path d="M179.988 40.5373C180.019 41.5777 179.841 42.6137 179.465 43.584C179.088 44.5542 178.521 45.4391 177.796 46.186C177.071 46.9329 176.204 47.5267 175.245 47.9322C174.287 48.3377 173.257 48.5466 172.216 48.5466C171.175 48.5466 170.145 48.3377 169.186 47.9322C168.228 47.5267 167.36 46.9329 166.635 46.186C165.911 45.4391 165.343 44.5542 164.966 43.584C164.59 42.6137 164.412 41.5777 164.443 40.5373C164.443 36.2453 168.149 35.3843 172.443 35.3843C176.737 35.3843 179.988 36.2483 179.988 40.5373Z" fill="#263238"/>
<path d="M184.046 46.3953C183.626 48.5108 183.091 50.6022 182.446 52.6603C182.141 53.2055 181.638 53.6123 181.041 53.7963L181.117 50.0143L184.046 46.3953Z" fill="#263238"/>
<path d="M182.611 38.6843C183.013 38.6375 183.419 38.6827 183.801 38.8167C184.182 38.9506 184.527 39.1697 184.811 39.4573C185.754 40.4233 185.227 43.4383 184.05 46.3953L181.895 46.6413L182.611 38.6843Z" fill="#263238"/>
<path d="M181.235 46.6443C181.668 46.9023 182.289 46.0583 182.822 45.5083C183.033 45.2696 183.301 45.0883 183.601 44.9814C183.9 44.8744 184.222 44.8453 184.537 44.8967C184.851 44.9482 185.147 45.0786 185.397 45.2756C185.647 45.4726 185.843 45.7299 185.966 46.0233C186.838 47.8563 185.199 50.3503 183.823 50.7833C181.481 51.5213 181.106 50.0103 181.106 50.0103L181.03 58.7633C177.066 63.3243 170.116 60.6433 173.237 58.3063V55.7123C172.184 55.8793 171.117 55.9342 170.052 55.8763C168.295 55.6073 167.224 54.2373 166.697 52.3633C165.848 49.3423 165.526 46.9063 166.246 40.9633C167.031 34.4463 174.607 34.3823 178.7 36.9633C182.793 39.5443 181.235 46.6443 181.235 46.6443Z" fill="#FFA8A7"/>
<path d="M175.222 48.1343H174.853C174.528 48.1491 174.202 48.0978 173.897 47.9834C173.592 47.869 173.313 47.6939 173.077 47.4687C172.842 47.2435 172.654 46.9729 172.526 46.6731C172.398 46.3734 172.332 46.0508 172.332 45.7248C172.332 45.3988 172.398 45.0762 172.526 44.7765C172.654 44.4767 172.842 44.2061 173.077 43.9809C173.313 43.7557 173.592 43.5806 173.897 43.4662C174.202 43.3518 174.528 43.3005 174.853 43.3153H175.222C175.548 43.3005 175.873 43.3518 176.179 43.4662C176.484 43.5806 176.763 43.7557 176.998 43.9809C177.234 44.2061 177.422 44.4767 177.55 44.7765C177.678 45.0762 177.744 45.3988 177.744 45.7248C177.744 46.0508 177.678 46.3734 177.55 46.6731C177.422 46.9729 177.234 47.2435 176.998 47.4687C176.763 47.6939 176.484 47.869 176.179 47.9834C175.873 48.0978 175.548 48.1491 175.222 48.1343ZM174.853 43.7193C174.582 43.7057 174.31 43.7475 174.055 43.8422C173.8 43.9369 173.566 44.0824 173.369 44.27C173.172 44.4575 173.015 44.6832 172.908 44.9333C172.8 45.1834 172.745 45.4527 172.745 45.7248C172.745 45.9969 172.8 46.2662 172.908 46.5163C173.015 46.7664 173.172 46.9921 173.369 47.1797C173.566 47.3672 173.8 47.5127 174.055 47.6074C174.31 47.7021 174.582 47.7439 174.853 47.7303H175.222C175.494 47.7439 175.766 47.7021 176.021 47.6074C176.276 47.5127 176.509 47.3672 176.706 47.1797C176.904 46.9921 177.061 46.7664 177.168 46.5163C177.275 46.2662 177.33 45.9969 177.33 45.7248C177.33 45.4527 177.275 45.1834 177.168 44.9333C177.061 44.6832 176.904 44.4575 176.706 44.27C176.509 44.0824 176.276 43.9369 176.021 43.8422C175.766 43.7475 175.494 43.7057 175.222 43.7193H174.853Z" fill="#263238"/>
<path d="M167.874 48.1343H167.499C167.173 48.1491 166.848 48.0978 166.543 47.9834C166.238 47.869 165.959 47.6939 165.723 47.4687C165.487 47.2435 165.3 46.9729 165.172 46.6731C165.043 46.3734 164.977 46.0508 164.977 45.7248C164.977 45.3988 165.043 45.0762 165.172 44.7765C165.3 44.4767 165.487 44.2061 165.723 43.9809C165.959 43.7557 166.238 43.5806 166.543 43.4662C166.848 43.3518 167.173 43.3005 167.499 43.3153H167.874C168.2 43.3005 168.525 43.3518 168.83 43.4662C169.136 43.5806 169.414 43.7557 169.65 43.9809C169.886 44.2061 170.073 44.4767 170.202 44.7765C170.33 45.0762 170.396 45.3988 170.396 45.7248C170.396 46.0508 170.33 46.3734 170.202 46.6731C170.073 46.9729 169.886 47.2435 169.65 47.4687C169.414 47.6939 169.136 47.869 168.83 47.9834C168.525 48.0978 168.2 48.1491 167.874 48.1343ZM167.499 43.7193C166.985 43.745 166.5 43.9675 166.144 44.3408C165.789 44.7141 165.591 45.2096 165.591 45.7248C165.591 46.24 165.789 46.7355 166.144 47.1088C166.5 47.4821 166.985 47.7046 167.499 47.7303H167.874C168.389 47.7046 168.874 47.4821 169.229 47.1088C169.584 46.7355 169.782 46.24 169.782 45.7248C169.782 45.2096 169.584 44.7141 169.229 44.3408C168.874 43.9675 168.389 43.745 167.874 43.7193H167.499Z" fill="#263238"/>
<path d="M172.453 45.2473C172.306 45.0473 172.113 44.8844 171.892 44.7716C171.67 44.6588 171.426 44.5991 171.177 44.5973C170.972 44.574 170.765 44.6001 170.572 44.6735C170.38 44.7469 170.207 44.8655 170.07 45.0193L169.742 44.7733C169.919 44.5646 170.145 44.4022 170.399 44.3001C170.653 44.198 170.928 44.1593 171.2 44.1873C171.515 44.1896 171.824 44.2674 172.103 44.414C172.381 44.5607 172.62 44.7721 172.8 45.0303L172.453 45.2473Z" fill="#263238"/>
<path d="M182.541 45.2303H177.412V45.6343H182.541V45.2303Z" fill="#263238"/>
<path d="M181.236 47.3733C181.453 47.3733 182.284 46.0033 182.823 45.5113C183.567 44.8323 182.606 38.6843 182.606 38.6843C183.467 36.8463 181.874 34.7323 180.211 34.1053C178.937 33.7139 177.594 33.598 176.271 33.7653C175.077 33.8553 173.888 33.9887 172.705 34.1653C171.278 34.4448 169.835 34.6405 168.384 34.7513C167.224 34.8138 166.063 34.6508 164.965 34.2713C164.888 34.2422 164.804 34.235 164.723 34.2508C164.642 34.2665 164.567 34.3044 164.507 34.3604C164.446 34.4163 164.402 34.488 164.38 34.5674C164.357 34.6469 164.358 34.731 164.38 34.8103C164.476 35.1188 164.61 35.4138 164.78 35.6883C165.094 36.2395 165.489 36.7407 165.951 37.1753C166.469 37.6344 167.03 38.0423 167.626 38.3933C170.826 40.2723 174.863 40.0503 178.426 39.5643C179.226 39.4533 179.404 40.2313 179.837 42.3573C180.199 44.1933 180.51 47.3613 181.236 47.3733Z" fill="#263238"/>
<path d="M182.606 39.1633L185.223 37.7583C185.14 37.582 185.022 37.4245 184.876 37.2953C184.73 37.166 184.559 37.0678 184.374 37.0064C184.189 36.9451 183.994 36.922 183.799 36.9384C183.605 36.9549 183.416 37.0107 183.244 37.1023C182.893 37.298 182.631 37.6213 182.513 38.0051C182.394 38.3888 182.427 38.8036 182.606 39.1633Z" fill="#263238"/>
<path d="M173.249 55.7163C175.038 55.3766 176.792 54.8745 178.489 54.2163C179.287 53.801 179.94 53.154 180.363 52.3604C180.16 53.155 179.797 53.9001 179.297 54.5503C178.307 55.8213 173.249 56.7504 173.249 56.7504V55.7163Z" fill="#B96867"/>
<path d="M174.212 45.6753C174.21 45.7792 174.228 45.8824 174.266 45.9793C174.303 46.0761 174.359 46.1646 174.431 46.2396C174.503 46.3147 174.589 46.3748 174.684 46.4166C174.779 46.4585 174.881 46.4811 174.985 46.4833C175.196 46.4778 175.396 46.3892 175.542 46.2367C175.688 46.0843 175.768 45.8803 175.764 45.6693C175.774 45.5617 175.761 45.4532 175.726 45.3509C175.691 45.2486 175.636 45.1546 175.563 45.0749C175.49 44.9952 175.401 44.9316 175.302 44.888C175.203 44.8445 175.096 44.822 174.988 44.822C174.88 44.822 174.773 44.8445 174.674 44.888C174.575 44.9316 174.487 44.9952 174.414 45.0749C174.341 45.1546 174.285 45.2486 174.25 45.3509C174.216 45.4532 174.203 45.5617 174.212 45.6693V45.6753Z" fill="#263238"/>
<path d="M175.433 42.4553L177.096 43.3743C177.214 43.1464 177.239 42.882 177.167 42.6357C177.096 42.3895 176.932 42.1803 176.71 42.0513C176.6 41.9918 176.48 41.955 176.356 41.9429C176.232 41.9308 176.106 41.9439 175.987 41.9812C175.868 42.0185 175.758 42.0793 175.663 42.1601C175.568 42.2409 175.49 42.3399 175.434 42.4513L175.433 42.4553Z" fill="#263238"/>
<path d="M173.624 51.0443L171.867 51.7113C171.906 51.8303 171.968 51.9403 172.05 52.0347C172.133 52.1291 172.233 52.206 172.346 52.2607C172.458 52.3154 172.581 52.3468 172.706 52.3531C172.831 52.3594 172.956 52.3404 173.073 52.2973C173.309 52.1996 173.497 52.0148 173.6 51.7814C173.703 51.548 173.711 51.2839 173.624 51.0443Z" fill="#B96867"/>
<path d="M167.054 43.1404L168.57 41.9693C168.499 41.8665 168.408 41.7792 168.303 41.713C168.197 41.6467 168.078 41.6028 167.955 41.5841C167.832 41.5653 167.706 41.5721 167.585 41.604C167.464 41.6358 167.351 41.6921 167.253 41.7694C167.049 41.928 166.915 42.1593 166.878 42.4148C166.841 42.6704 166.904 42.9303 167.054 43.1404Z" fill="#263238"/>
<path d="M167.716 45.4293C167.721 45.5819 167.77 45.7297 167.858 45.8544C167.946 45.979 168.069 46.075 168.211 46.1304C168.353 46.1858 168.509 46.198 168.658 46.1656C168.807 46.1333 168.943 46.0577 169.05 45.9484C169.156 45.8391 169.228 45.7008 169.256 45.5509C169.285 45.4009 169.268 45.246 169.209 45.1053C169.15 44.9646 169.051 44.8445 168.924 44.7598C168.797 44.6752 168.648 44.6298 168.495 44.6293C168.287 44.6348 168.089 44.7215 167.943 44.8709C167.798 45.0204 167.716 45.2208 167.716 45.4293Z" fill="#263238"/>
<path d="M171.563 44.8323L171.469 49.5453L168.682 48.9303L171.563 44.8323Z" fill="#B96867"/>
<path d="M196.008 86.3333C194.374 67.3103 191.055 61.1273 185.598 60.3483C183.713 62.0053 183.256 67.8133 185.229 71.6893C185.229 71.6893 189.468 83.6393 189.708 87.9783C189.823 92.1417 189.535 96.3065 188.847 100.414C188.741 100.974 188.435 101.475 187.986 101.825C186.815 102.774 186.868 103.734 186.019 104.858C185.352 105.736 184.725 106.029 184.848 106.246C185.025 106.509 185.295 106.695 185.604 106.766C185.912 106.838 186.236 106.79 186.511 106.632C187.046 106.363 187.539 106.017 187.975 105.607C187.617 106.756 187.099 107.848 186.435 108.851C184.883 111.269 184.954 112.633 188.601 112.251C190.884 112.017 192.547 110.401 193.695 105.184C194.023 103.684 194.802 100.927 195.13 99.0073C195.939 94.8344 196.234 90.578 196.008 86.3333Z" fill="#FFA8A7"/>
<path d="M184.046 59.7563C184.046 59.7563 188.022 60.0373 190.03 62.3913C192.038 64.7453 193.953 68.8324 195.3 76.5784C195.3 76.5784 192.782 80.1443 186.219 79.1893C186.219 79.1893 183.367 69.5753 183.11 65.5703C182.838 61.2373 184.046 59.7563 184.046 59.7563Z" fill="#2387C2"/>
<path d="M44.7475 91.9884L17.1997 104.062L25.3385 122.632L52.8862 110.558L44.7475 91.9884Z" fill="#F3704A"/>
<path d="M44.9274 92.1853C44.8908 92.3095 44.8418 92.4297 44.7814 92.5442C44.6678 92.8006 44.5034 93.1304 44.3059 93.5547L42.5198 97.2363L36.5287 109.386L36.4755 109.484L36.3647 109.478L36.1059 109.408L22.8596 105.839L18.8486 104.721L17.7635 104.408C17.6346 104.376 17.5089 104.332 17.3878 104.278C17.5188 104.291 17.6483 104.316 17.7743 104.354L18.875 104.619L22.9075 105.631L36.1766 109.131L36.4433 109.201L36.2803 109.272C38.6469 104.546 40.7822 100.277 42.3462 97.1651L44.1945 93.5028L44.7157 92.5187C44.7755 92.405 44.8452 92.2967 44.9239 92.1952L44.9274 92.1853Z" fill="#E0E0E0"/>
<path d="M25.5154 122.782C25.4435 122.779 26.3984 119.308 27.6478 115.073C28.8971 110.839 29.9764 107.422 30.0505 107.442C30.1245 107.462 29.1674 110.916 27.9181 115.151C26.6688 119.385 25.584 122.831 25.5154 122.782Z" fill="#E0E0E0"/>
<path d="M39.0924 103.229C39.0962 103.157 42.2841 104.79 46.1338 106.864C49.9836 108.937 53.1018 110.677 53.0515 110.739C53.0012 110.8 49.8598 109.178 46.01 107.104C42.1603 105.031 39.0571 103.291 39.0924 103.229Z" fill="#E0E0E0"/>
<path d="M81.1043 126.853L59.8264 121.422L56.1654 135.765L77.4433 141.196L81.1043 126.853Z" fill="#FFD433"/>
<path d="M81.1196 127.048C81.0426 127.103 80.9604 127.15 80.8742 127.188C80.6916 127.284 80.449 127.403 80.1464 127.556L77.4645 128.873L68.5596 133.174L68.4839 133.208L68.4228 133.155L68.3047 132.998L62.2871 124.987L60.4813 122.541L59.9993 121.875C59.9397 121.799 59.887 121.717 59.8418 121.631C59.9111 121.697 59.9739 121.77 60.0293 121.848L60.5441 122.496L62.4121 124.889L68.4748 132.865L68.5989 133.027L68.4732 132.994C71.9586 131.338 75.1057 129.841 77.4044 128.754L80.1139 127.478L80.8563 127.146C80.9418 127.108 81.0305 127.077 81.1214 127.053L81.1196 127.048Z" fill="#292C2D"/>
<path d="M56.1994 135.932C56.1601 135.898 58.2685 134.33 60.8899 132.455C63.5113 130.58 65.6682 129.098 65.6996 129.141C65.731 129.185 63.6305 130.744 61.0091 132.618C58.3877 134.493 56.2183 135.99 56.1994 135.932Z" fill="#292C2D"/>
<path d="M72.7992 130.78C72.8333 130.741 73.9342 133.112 75.2183 136.035C76.5025 138.959 77.514 141.361 77.4582 141.374C77.4023 141.386 76.3232 139.041 75.0391 136.118C73.7549 133.195 72.7517 130.8 72.7992 130.78Z" fill="#292C2D"/>
</svg>
