<svg width="36" height="36" viewBox="0 0 36 36" fill="none" xmlns="http://www.w3.org/2000/svg">
<path d="M36 18C36 27.9411 27.9411 36 18 36C8.05888 36 0 27.9411 0 18C0 8.05888 8.05888 0 18 0C27.9411 0 36 8.05888 36 18ZM19.125 10.125C19.125 9.50368 18.6213 9 18 9C17.3787 9 16.875 9.50368 16.875 10.125V16.875H10.125C9.50368 16.875 9 17.3787 9 18C9 18.6213 9.50368 19.125 10.125 19.125H16.875V25.875C16.875 26.4963 17.3787 27 18 27C18.6213 27 19.125 26.4963 19.125 25.875V19.125H25.875C26.4963 19.125 27 18.6213 27 18C27 17.3787 26.4963 16.875 25.875 16.875H19.125V10.125Z" fill="#2387C2"/>
</svg>
