<svg width="36" height="36" viewBox="0 0 36 36" fill="none" xmlns="http://www.w3.org/2000/svg">
<circle cx="18" cy="18" r="18" fill="#EAEAEA"/>
<path d="M9.25657 10.2553C9.18043 10.1921 9.11836 10.1138 9.07431 10.0255C9.03026 9.93711 9.0052 9.84058 9.00073 9.74205C8.99625 9.64351 9.01246 9.54513 9.04832 9.45317C9.08418 9.36121 9.13891 9.2777 9.20901 9.20795C9.27911 9.13821 9.36304 9.08376 9.45546 9.04808C9.54789 9.0124 9.64677 8.99627 9.7458 9.00072C9.84484 9.00518 9.94185 9.03011 10.0307 9.07394C10.1195 9.11777 10.1981 9.17952 10.2616 9.25528L17.5986 16.5553L24.9355 9.25528C24.999 9.17952 25.0776 9.11777 25.1664 9.07394C25.2553 9.03011 25.3523 9.00518 25.4513 9.00072C25.5503 8.99627 25.6492 9.0124 25.7416 9.04808C25.8341 9.08376 25.918 9.13821 25.9881 9.20795C26.0582 9.2777 26.1129 9.36121 26.1488 9.45317C26.1846 9.54513 26.2008 9.64351 26.1964 9.74205C26.1919 9.84058 26.1668 9.93711 26.1228 10.0255C26.0787 10.1138 26.0167 10.1921 25.9405 10.2553L18.6036 17.5553L25.9405 24.8553C26.0546 24.9914 26.1134 25.165 26.1054 25.342C26.0973 25.5191 26.023 25.6867 25.8971 25.812C25.7711 25.9374 25.6026 26.0113 25.4247 26.0193C25.2468 26.0273 25.0723 25.9688 24.9355 25.8553L17.5986 18.5553L10.2616 25.8553C10.1248 25.9688 9.95033 26.0273 9.77239 26.0193C9.59446 26.0113 9.42596 25.9374 9.30002 25.812C9.17407 25.6867 9.09978 25.5191 9.09174 25.342C9.0837 25.165 9.14249 24.9914 9.25657 24.8553L16.5935 17.5553L9.25657 10.2553Z" fill="#292C2D"/>
</svg>
